<?xml version="1.0" standalone="no"?>
<!DOCTYPE svg PUBLIC "-//W3C//DTD SVG 20010904//EN"
 "http://www.w3.org/TR/2001/REC-SVG-20010904/DTD/svg10.dtd">
<svg version="1.0" xmlns="http://www.w3.org/2000/svg"
 width="500.000000pt" height="500.000000pt" viewBox="0 0 500.000000 500.000000"
 preserveAspectRatio="xMidYMid meet">

<g transform="translate(0.000000,500.000000) scale(0.100000,-0.100000)"
fill="#000000" stroke="none">
<path d="M2315 4994 c-16 -2 -73 -9 -125 -15 -362 -41 -754 -187 -1070 -397
-491 -327 -844 -802 -1014 -1365 -60 -198 -110 -492 -86 -507 7 -4 302 -137
656 -295 l644 -286 32 24 c87 65 216 111 349 125 l72 7 298 435 c259 376 299
440 299 472 0 141 63 359 144 495 68 115 197 250 308 324 277 182 622 200 918
48 481 -248 672 -880 417 -1385 -156 -309 -472 -516 -802 -526 l-89 -3 -410
-310 -409 -310 -4 -55 c-14 -201 -96 -375 -242 -512 -282 -266 -697 -247 -966
44 -70 76 -145 210 -169 303 l-12 50 -464 197 c-255 109 -466 196 -468 193
-12 -12 95 -275 169 -415 372 -700 1055 -1180 1851 -1301 202 -31 514 -31 716
0 970 147 1755 822 2035 1751 74 245 102 439 102 720 0 119 -6 255 -13 305
-57 411 -184 749 -402 1078 -395 595 -1015 986 -1735 1093 -95 14 -467 27
-530 18z"/>
<path d="M3197 3824 c-295 -71 -502 -365 -484 -688 15 -288 192 -527 452 -609
102 -32 253 -31 354 2 185 61 340 217 407 410 64 184 48 389 -44 566 -47 90
-172 217 -259 263 -126 66 -293 88 -426 56z m339 -188 c131 -62 231 -184 269
-327 20 -73 19 -212 -1 -280 -54 -181 -182 -310 -349 -354 -299 -78 -589 166
-589 495 1 237 155 445 371 500 21 5 79 8 130 6 81 -3 100 -7 169 -40z"/>
<path d="M1627 2064 c-89 -21 -98 -29 -57 -47 135 -57 322 -142 355 -162 157
-91 233 -293 175 -464 -51 -151 -168 -253 -323 -282 -83 -15 -148 1 -336 81
-91 39 -166 70 -168 70 -2 0 8 -24 24 -52 38 -71 145 -177 214 -211 153 -76
329 -76 473 1 81 43 186 154 230 242 115 235 74 499 -105 682 -129 132 -307
185 -482 142z"/>
</g>
</svg>
