<svg xmlns="http://www.w3.org/2000/svg" width="600" height="600" viewBox="0 0 600 600" version="1.1"><path d="M 188 117.500 L 188 122 173.500 122 L 159 122 159 131.500 L 159 141 154.500 141 L 150 141 150 145.500 L 150 150 154.500 150 L 159 150 159 145.500 L 159 141 173.500 141 L 188 141 188 145.500 L 188 150 281.500 150 L 375 150 375 145.500 L 375 141 281.500 141 L 188 141 188 131.500 L 188 122 206.500 122 L 225 122 225 117.500 L 225 113 206.500 113 L 188 113 188 117.500 M 413 117.500 L 413 122 417.500 122 L 422 122 422 131.500 L 422 141 431.500 141 L 441 141 441 145.500 L 441 150 445.500 150 L 450 150 450 136 L 450 122 436 122 L 422 122 422 117.500 L 422 113 417.500 113 L 413 113 413 117.500 M 478 154.500 L 478 159 483 159 L 488 159 488 154.500 L 488 150 483 150 L 478 150 478 154.500 M 113 243.500 L 113 262 117.500 262 L 122 262 122 248 L 122 234 131.500 234 L 141 234 141 229.500 L 141 225 127 225 L 113 225 113 243.500 M 103 281.500 L 103 291 93.500 291 L 84 291 84 295.500 L 84 300 79.500 300 L 75 300 75 319 L 75 338 79.500 338 L 84 338 84 319 L 84 300 98.500 300 L 113 300 113 286 L 113 272 108 272 L 103 272 103 281.500 M 75 370.500 L 75 375 79.500 375 L 84 375 84 370.500 L 84 366 79.500 366 L 75 366 75 370.500" stroke="none" fill="#a5a7ad" fill-rule="evenodd"/><path d="M 375 136 L 375 150 394 150 L 413 150 413 136 L 413 122 394 122 L 375 122 375 136 M 150 262.500 L 150 375 136 375 L 122 375 122 394 L 122 413 117.500 413 L 113 413 113 431.500 L 113 450 136 450 L 159 450 159 445.500 L 159 441 168.500 441 L 178 441 178 445.500 L 178 450 183 450 L 188 450 188 300 L 188 150 169 150 L 150 150 150 262.500 M 375 183 L 375 188 379.500 188 L 384 188 384 183 L 384 178 379.500 178 L 375 178 375 183 M 450 225 L 450 262 431.500 262 L 413 262 413 281 L 413 300 431.500 300 L 450 300 450 337.500 L 450 375 469 375 L 488 375 488 337.500 L 488 300 506.500 300 L 525 300 525 267 L 525 234 520.500 234 L 516 234 516 229.500 L 516 225 502 225 L 488 225 488 262.500 L 488 300 469 300 L 450 300 450 295.500 L 450 291 436 291 L 422 291 422 281.500 L 422 272 436 272 L 450 272 450 267 L 450 262 454.500 262 L 459 262 459 225 L 459 188 454.500 188 L 450 188 450 225" stroke="none" fill="#8e9098" fill-rule="evenodd"/><path d="M 375 117.500 L 375 122 394 122 L 413 122 413 117.500 L 413 113 394 113 L 375 113 375 117.500 M 413 145.500 L 413 150 427 150 L 441 150 441 145.500 L 441 141 427 141 L 413 141 413 145.500 M 450 169 L 450 188 454.500 188 L 459 188 459 225 L 459 262 454.500 262 L 450 262 450 267 L 450 272 436 272 L 422 272 422 281.500 L 422 291 436 291 L 450 291 450 295.500 L 450 300 469 300 L 488 300 488 262.500 L 488 225 483 225 L 478 225 478 192 L 478 159 468.500 159 L 459 159 459 154.500 L 459 150 454.500 150 L 450 150 450 169 M 516 229.500 L 516 234 520.500 234 L 525 234 525 229.500 L 525 225 520.500 225 L 516 225 516 229.500 M 113 300 L 113 338 98.500 338 L 84 338 84 352 L 84 366 93.500 366 L 103 366 103 370.500 L 103 375 108 375 L 113 375 113 394 L 113 413 117.500 413 L 122 413 122 394 L 122 375 136 375 L 150 375 150 318.500 L 150 262 131.500 262 L 113 262 113 300" stroke="none" fill="#9b9ead" fill-rule="evenodd"/><path d="M 197 154.500 L 197 159 281.500 159 L 366 159 366 154.500 L 366 150 281.500 150 L 197 150 197 154.500" stroke="none" fill="#f6f6f7" fill-rule="evenodd"/><path d="M 197 300 L 197 441 281.500 441 L 366 441 366 422 L 366 403 384.500 403 L 403 403 403 356 L 403 309 384.500 309 L 366 309 366 281 L 366 253 384.500 253 L 403 253 403 225 L 403 197 384.500 197 L 366 197 366 178 L 366 159 281.500 159 L 197 159 197 300 M 253 225 L 253 272 300 272 L 347 272 347 225 L 347 178 300 178 L 253 178 253 225 M 253 356.500 L 253 422 300 422 L 347 422 347 356.500 L 347 291 300 291 L 253 291 253 356.500" stroke="none" fill="#ffffff" fill-rule="evenodd"/><path d="M 225 19 L 225 38 220.500 38 L 216 38 216 42.500 L 216 47 220.500 47 L 225 47 225 42.500 L 225 38 258 38 L 291 38 291 33 L 291 28 262.500 28 L 234 28 234 14 L 234 0 229.500 0 L 225 0 225 19 M 150 42.500 L 150 47 154.500 47 L 159 47 159 42.500 L 159 38 154.500 38 L 150 38 150 42.500 M 150 70.500 L 150 75 154.500 75 L 159 75 159 70.500 L 159 66 154.500 66 L 150 66 150 70.500 M 216 70.500 L 216 75 220.500 75 L 225 75 225 70.500 L 225 66 220.500 66 L 216 66 216 70.500 M 113 79.500 L 113 84 117.500 84 L 122 84 122 79.500 L 122 75 117.500 75 L 113 75 113 79.500 M 75 117.500 L 75 122 79.500 122 L 84 122 84 117.500 L 84 113 79.500 113 L 75 113 75 117.500 M 38 154.500 L 38 159 42.500 159 L 47 159 47 154.500 L 47 150 42.500 150 L 38 150 38 154.500 M 66 154.500 L 66 159 70.500 159 L 75 159 75 154.500 L 75 150 70.500 150 L 66 150 66 154.500 M 375 164 L 375 178 379.500 178 L 384 178 384 183 L 384 188 398.500 188 L 413 188 413 183 L 413 178 408 178 L 403 178 403 168.500 L 403 159 408 159 L 413 159 413 154.500 L 413 150 394 150 L 375 150 375 164 M 262 225 L 262 262 300 262 L 338 262 338 225 L 338 188 300 188 L 262 188 262 225 M 272 225 L 272 253 300 253 L 328 253 328 225 L 328 197 300 197 L 272 197 272 225 M 375 267 L 375 272 379.500 272 L 384 272 384 267 L 384 262 379.500 262 L 375 262 375 267 M 403 267 L 403 272 408 272 L 413 272 413 267 L 413 262 408 262 L 403 262 403 267 M 375 295.500 L 375 300 379.500 300 L 384 300 384 295.500 L 384 291 379.500 291 L 375 291 375 295.500 M 403 295.500 L 403 300 408 300 L 413 300 413 295.500 L 413 291 408 291 L 403 291 403 295.500 M 262 356.500 L 262 413 300 413 L 338 413 338 356.500 L 338 300 300 300 L 262 300 262 356.500 M 488 319 L 488 338 506.500 338 L 525 338 525 319 L 525 300 506.500 300 L 488 300 488 319 M 272 356 L 272 403 300 403 L 328 403 328 356 L 328 309 300 309 L 272 309 272 356 M 516 370.500 L 516 375 520.500 375 L 525 375 525 370.500 L 525 366 520.500 366 L 516 366 516 370.500 M 450 379.500 L 450 384 454.500 384 L 459 384 459 393.500 L 459 403 468.500 403 L 478 403 478 408 L 478 413 483 413 L 488 413 488 394 L 488 375 469 375 L 450 375 450 379.500 M 159 445.500 L 159 450 168.500 450 L 178 450 178 445.500 L 178 441 168.500 441 L 159 441 159 445.500 M 225 506.500 L 225 525 281.500 525 L 338 525 338 520.500 L 338 516 319 516 L 300 516 300 506.500 L 300 497 281 497 L 262 497 262 506.500 L 262 516 248 516 L 234 516 234 502 L 234 488 229.500 488 L 225 488 225 506.500" stroke="none" fill="#747781" fill-rule="evenodd"/><path d="M 197 300 L 197 441 281.500 441 L 366 441 366 422 L 366 403 384.500 403 L 403 403 403 356 L 403 309 384.500 309 L 366 309 366 281 L 366 253 384.500 253 L 403 253 403 225 L 403 197 384.500 197 L 366 197 366 178 L 366 159 281.500 159 L 197 159 197 300 M 253 225 L 253 272 300 272 L 347 272 347 225 L 347 178 300 178 L 253 178 253 225 M 253 356.500 L 253 422 300 422 L 347 422 347 356.500 L 347 291 300 291 L 253 291 253 356.500" stroke="none" fill="#ffffff" fill-rule="evenodd"/><path d="M 234 56.500 L 234 66 267 66 L 300 66 300 56.500 L 300 47 267 47 L 234 47 234 56.500 M 159 93.500 L 159 103 187.500 103 L 216 103 216 93.500 L 216 84 187.500 84 L 159 84 159 93.500 M 122 131.500 L 122 141 131.500 141 L 141 141 141 131.500 L 141 122 131.500 122 L 122 122 122 131.500 M 84 173.500 L 84 188 93.500 188 L 103 188 103 173.500 L 103 159 93.500 159 L 84 159 84 173.500 M 188 300 L 188 441 192.500 441 L 197 441 197 300 L 197 159 192.500 159 L 188 159 188 300 M 366 173.500 L 366 188 370.500 188 L 375 188 375 192.500 L 375 197 389 197 L 403 197 403 192.500 L 403 188 389 188 L 375 188 375 173.500 L 375 159 370.500 159 L 366 159 366 173.500 M 262 183 L 262 188 257.500 188 L 253 188 253 225 L 253 262 257.500 262 L 262 262 262 267 L 262 272 300 272 L 338 272 338 267 L 338 262 342.500 262 L 347 262 347 225 L 347 188 342.500 188 L 338 188 338 183 L 338 178 300 178 L 262 178 262 183 M 262 225 L 262 262 300 262 L 338 262 338 225 L 338 188 300 188 L 262 188 262 225 M 375 257.500 L 375 262 370.500 262 L 366 262 366 281 L 366 300 370.500 300 L 375 300 375 304.500 L 375 309 389 309 L 403 309 403 323.500 L 403 338 408 338 L 413 338 413 323.500 L 413 309 408 309 L 403 309 403 304.500 L 403 300 389 300 L 375 300 375 281 L 375 262 389 262 L 403 262 403 257.500 L 403 253 389 253 L 375 253 375 257.500 M 262 295.500 L 262 300 257.500 300 L 253 300 253 356.500 L 253 413 257.500 413 L 262 413 262 417.500 L 262 422 300 422 L 338 422 338 417.500 L 338 413 342.500 413 L 347 413 347 356.500 L 347 300 342.500 300 L 338 300 338 295.500 L 338 291 300 291 L 262 291 262 295.500 M 262 356.500 L 262 413 300 413 L 338 413 338 356.500 L 338 300 300 300 L 262 300 262 356.500 M 375 408 L 375 413 370.500 413 L 366 413 366 427 L 366 441 370.500 441 L 375 441 375 427 L 375 413 389 413 L 403 413 403 408 L 403 403 389 403 L 375 403 375 408" stroke="none" fill="#f5f5f6" fill-rule="evenodd"/><path d="M 384 56.500 L 384 66 412.500 66 L 441 66 441 56.500 L 441 47 412.500 47 L 384 47 384 56.500 M 459 79.500 L 459 84 454.500 84 L 450 84 450 93.500 L 450 103 454.500 103 L 459 103 459 108 L 459 113 468.500 113 L 478 113 478 108 L 478 103 483 103 L 488 103 488 93.500 L 488 84 483 84 L 478 84 478 79.500 L 478 75 468.500 75 L 459 75 459 79.500 M 497 117.500 L 497 122 492.500 122 L 488 122 488 131.500 L 488 141 492.500 141 L 497 141 497 145.500 L 497 150 506.500 150 L 516 150 516 145.500 L 516 141 520.500 141 L 525 141 525 131.500 L 525 122 520.500 122 L 516 122 516 117.500 L 516 113 506.500 113 L 497 113 497 117.500 M 525 187.500 L 525 225 543.500 225 L 562 225 562 229.500 L 562 234 567 234 L 572 234 572 229.500 L 572 225 567 225 L 562 225 562 192 L 562 159 557.500 159 L 553 159 553 154.500 L 553 150 539 150 L 525 150 525 187.500 M 534 187.500 L 534 216 543.500 216 L 553 216 553 187.500 L 553 159 543.500 159 L 534 159 534 187.500 M 0 337.500 L 0 375 14 375 L 28 375 28 370.500 L 28 366 33 366 L 38 366 38 352 L 38 338 33 338 L 28 338 28 319 L 28 300 14 300 L 0 300 0 337.500 M 38 412.500 L 38 450 56.500 450 L 75 450 75 454.500 L 75 459 79.500 459 L 84 459 84 454.500 L 84 450 79.500 450 L 75 450 75 445.500 L 75 441 61 441 L 47 441 47 412.500 L 47 384 56.500 384 L 66 384 66 398.500 L 66 413 70.500 413 L 75 413 75 394 L 75 375 56.500 375 L 38 375 38 412.500 M 553 445.500 L 553 450 557.500 450 L 562 450 562 445.500 L 562 441 557.500 441 L 553 441 553 445.500 M 103 454.500 L 103 459 108 459 L 113 459 113 454.500 L 113 450 108 450 L 103 450 103 454.500 M 375 464 L 375 478 394 478 L 413 478 413 464 L 413 450 394 450 L 375 450 375 464 M 75 483 L 75 488 79.500 488 L 84 488 84 483 L 84 478 79.500 478 L 75 478 75 483 M 103 483 L 103 488 108 488 L 113 488 113 492.500 L 113 497 117.500 497 L 122 497 122 492.500 L 122 488 117.500 488 L 113 488 113 483 L 113 478 108 478 L 103 478 103 483 M 516 483 L 516 488 520.500 488 L 525 488 525 483 L 525 478 520.500 478 L 516 478 516 483 M 141 492.500 L 141 497 145.500 497 L 150 497 150 492.500 L 150 488 145.500 488 L 141 488 141 492.500 M 113 520.500 L 113 525 117.500 525 L 122 525 122 520.500 L 122 516 117.500 516 L 113 516 113 520.500 M 141 520.500 L 141 525 145.500 525 L 150 525 150 529.500 L 150 534 154.500 534 L 159 534 159 529.500 L 159 525 154.500 525 L 150 525 150 520.500 L 150 516 145.500 516 L 141 516 141 520.500 M 478 520.500 L 478 525 483 525 L 488 525 488 520.500 L 488 516 483 516 L 478 516 478 520.500 M 150 557.500 L 150 562 154.500 562 L 159 562 159 557.500 L 159 553 154.500 553 L 150 553 150 557.500 M 216 557.500 L 216 562 220.500 562 L 225 562 225 557.500 L 225 553 220.500 553 L 216 553 216 557.500 M 441 557.500 L 441 562 445.500 562 L 450 562 450 557.500 L 450 553 445.500 553 L 441 553 441 557.500" stroke="none" fill="#3f4147" fill-rule="evenodd"/><path d="M 384 42.500 L 384 47 379.500 47 L 375 47 375 56.500 L 375 66 379.500 66 L 384 66 384 70.500 L 384 75 412.500 75 L 441 75 441 70.500 L 441 66 445.500 66 L 450 66 450 56.500 L 450 47 445.500 47 L 441 47 441 42.500 L 441 38 412.500 38 L 384 38 384 42.500 M 384 56.500 L 384 66 412.500 66 L 441 66 441 56.500 L 441 47 412.500 47 L 384 47 384 56.500 M 450 79.500 L 450 84 454.500 84 L 459 84 459 79.500 L 459 75 454.500 75 L 450 75 450 79.500 M 450 108 L 450 113 454.500 113 L 459 113 459 108 L 459 103 454.500 103 L 450 103 450 108 M 478 108 L 478 113 483 113 L 488 113 488 117.500 L 488 122 492.500 122 L 497 122 497 117.500 L 497 113 492.500 113 L 488 113 488 108 L 488 103 483 103 L 478 103 478 108 M 488 145.500 L 488 150 492.500 150 L 497 150 497 145.500 L 497 141 492.500 141 L 488 141 488 145.500 M 516 145.500 L 516 150 520.500 150 L 525 150 525 145.500 L 525 141 520.500 141 L 516 141 516 145.500 M 553 154.500 L 553 159 557.500 159 L 562 159 562 154.500 L 562 150 557.500 150 L 553 150 553 154.500 M 422 243.500 L 422 262 431.500 262 L 441 262 441 257.500 L 441 253 445.500 253 L 450 253 450 239 L 450 225 436 225 L 422 225 422 243.500 M 0 281 L 0 300 14 300 L 28 300 28 319 L 28 338 33 338 L 38 338 38 319 L 38 300 33 300 L 28 300 28 281 L 28 262 14 262 L 0 262 0 281 M 28 370.500 L 28 375 33 375 L 38 375 38 370.500 L 38 366 33 366 L 28 366 28 370.500 M 413 445.500 L 413 478 394 478 L 375 478 375 468.500 L 375 459 281.500 459 L 188 459 188 468.500 L 188 478 206.500 478 L 225 478 225 483 L 225 488 319 488 L 413 488 413 483 L 413 478 427 478 L 441 478 441 464 L 441 450 445.500 450 L 450 450 450 445.500 L 450 441 464 441 L 478 441 478 427 L 478 413 445.500 413 L 413 413 413 445.500" stroke="none" fill="#464850" fill-rule="evenodd"/><path d="M 328 14 L 328 28 333 28 L 338 28 338 14 L 338 0 333 0 L 328 0 328 14 M 441 42.500 L 441 47 445.500 47 L 450 47 450 42.500 L 450 38 445.500 38 L 441 38 441 42.500 M 188 56.500 L 188 66 202 66 L 216 66 216 56.500 L 216 47 202 47 L 188 47 188 56.500 M 47 183 L 47 188 56.500 188 L 66 188 66 183 L 66 178 56.500 178 L 47 178 47 183 M 422 183 L 422 188 431.500 188 L 441 188 441 206.500 L 441 225 445.500 225 L 450 225 450 206.500 L 450 188 445.500 188 L 441 188 441 183 L 441 178 431.500 178 L 422 178 422 183 M 413 229.500 L 413 234 417.500 234 L 422 234 422 229.500 L 422 225 417.500 225 L 413 225 413 229.500 M 0 243.500 L 0 253 14 253 L 28 253 28 243.500 L 28 234 14 234 L 0 234 0 243.500 M 413 257.500 L 413 262 417.500 262 L 422 262 422 257.500 L 422 253 417.500 253 L 413 253 413 257.500 M 28 281 L 28 300 33 300 L 38 300 38 281 L 38 262 33 262 L 28 262 28 281 M 422 333 L 422 338 431.500 338 L 441 338 441 370.500 L 441 403 445.500 403 L 450 403 450 370.500 L 450 338 445.500 338 L 441 338 441 333 L 441 328 431.500 328 L 422 328 422 333 M 478 417.500 L 478 422 483 422 L 488 422 488 417.500 L 488 413 483 413 L 478 413 478 417.500 M 384 431.500 L 384 441 398.500 441 L 413 441 413 431.500 L 413 422 398.500 422 L 384 422 384 431.500 M 478 445.500 L 478 450 483 450 L 488 450 488 445.500 L 488 441 483 441 L 478 441 478 445.500 M 159 468.500 L 159 478 173.500 478 L 188 478 188 468.500 L 188 459 173.500 459 L 159 459 159 468.500 M 441 483 L 441 488 445.500 488 L 450 488 450 483 L 450 478 445.500 478 L 441 478 441 483 M 338 502 L 338 516 352 516 L 366 516 366 506.500 L 366 497 356.500 497 L 347 497 347 492.500 L 347 488 342.500 488 L 338 488 338 502" stroke="none" fill="#575861" fill-rule="evenodd"/><path d="M 534 187.500 L 534 216 543.500 216 L 553 216 553 187.500 L 553 159 543.500 159 L 534 159 534 187.500 M 572 229.500 L 572 234 567 234 L 562 234 562 304.500 L 562 375 543.500 375 L 525 375 525 403 L 525 431 529.500 431 L 534 431 534 407.500 L 534 384 543.500 384 L 553 384 553 412.500 L 553 441 539 441 L 525 441 525 445.500 L 525 450 506.500 450 L 488 450 488 459.500 L 488 469 492.500 469 L 497 469 497 464 L 497 459 506.500 459 L 516 459 516 468.500 L 516 478 502 478 L 488 478 488 483 L 488 488 469 488 L 450 488 450 497 L 450 506 454.500 506 L 459 506 459 501.500 L 459 497 468.500 497 L 478 497 478 506.500 L 478 516 464 516 L 450 516 450 520.500 L 450 525 412.500 525 L 375 525 375 534.500 L 375 544 379.500 544 L 384 544 384 539 L 384 534 412.500 534 L 441 534 441 543.500 L 441 553 408 553 L 375 553 375 557.500 L 375 562 300 562 L 225 562 225 581 L 225 600 229.500 600 L 234 600 234 586 L 234 572 300 572 L 366 572 366 586 L 366 600 370.500 600 L 375 600 375 581 L 375 562 408 562 L 441 562 441 557.500 L 441 553 445.500 553 L 450 553 450 539 L 450 525 464 525 L 478 525 478 520.500 L 478 516 483 516 L 488 516 488 502 L 488 488 502 488 L 516 488 516 483 L 516 478 520.500 478 L 525 478 525 464 L 525 450 539 450 L 553 450 553 445.500 L 553 441 557.500 441 L 562 441 562 408 L 562 375 581 375 L 600 375 600 370.500 L 600 366 586 366 L 572 366 572 300 L 572 234 586 234 L 600 234 600 229.500 L 600 225 586 225 L 572 225 572 229.500 M 47 412.500 L 47 441 61 441 L 75 441 75 427 L 75 413 70.500 413 L 66 413 66 398.500 L 66 384 56.500 384 L 47 384 47 412.500 M 84 454.500 L 84 459 79.500 459 L 75 459 75 468.500 L 75 478 79.500 478 L 84 478 84 483 L 84 488 93.500 488 L 103 488 103 483 L 103 478 108 478 L 113 478 113 468.500 L 113 459 108 459 L 103 459 103 454.500 L 103 450 93.500 450 L 84 450 84 454.500 M 84 468.500 L 84 478 93.500 478 L 103 478 103 473.500 L 103 469 98.500 469 L 94 469 94 464 L 94 459 89 459 L 84 459 84 468.500 M 122 492.500 L 122 497 117.500 497 L 113 497 113 506.500 L 113 516 117.500 516 L 122 516 122 520.500 L 122 525 131.500 525 L 141 525 141 520.500 L 141 516 145.500 516 L 150 516 150 506.500 L 150 497 145.500 497 L 141 497 141 492.500 L 141 488 131.500 488 L 122 488 122 492.500 M 122 506.500 L 122 516 131.500 516 L 141 516 141 506.500 L 141 497 131.500 497 L 122 497 122 506.500 M 159 529.500 L 159 534 154.500 534 L 150 534 150 543.500 L 150 553 154.500 553 L 159 553 159 557.500 L 159 562 187.500 562 L 216 562 216 557.500 L 216 553 220.500 553 L 225 553 225 539 L 225 525 192 525 L 159 525 159 529.500 M 159 543.500 L 159 553 187.500 553 L 216 553 216 543.500 L 216 534 187.500 534 L 159 534 159 543.500" stroke="none" fill="#1a1a1b" fill-rule="evenodd"/><path d="M 253 108 L 253 113 257.500 113 L 262 113 262 108 L 262 103 257.500 103 L 253 103 253 108 M 84 229.500 L 84 234 79.500 234 L 75 234 75 248 L 75 262 79.500 262 L 84 262 84 248 L 84 234 93.500 234 L 103 234 103 229.500 L 103 225 93.500 225 L 84 225 84 229.500 M 553 356.500 L 553 366 543.500 366 L 534 366 534 370.500 L 534 375 543.500 375 L 553 375 553 370.500 L 553 366 557.500 366 L 562 366 562 356.500 L 562 347 557.500 347 L 553 347 553 356.500 M 516 427 L 516 441 506.500 441 L 497 441 497 445.500 L 497 450 506.500 450 L 516 450 516 445.500 L 516 441 520.500 441 L 525 441 525 427 L 525 413 520.500 413 L 516 413 516 427 M 478 468.500 L 478 478 468.500 478 L 459 478 459 483 L 459 488 468.500 488 L 478 488 478 483 L 478 478 483 478 L 488 478 488 468.500 L 488 459 483 459 L 478 459 478 468.500 M 441 506.500 L 441 516 427 516 L 413 516 413 520.500 L 413 525 427 525 L 441 525 441 520.500 L 441 516 445.500 516 L 450 516 450 506.500 L 450 497 445.500 497 L 441 497 441 506.500 M 225 529.500 L 225 534 229.500 534 L 234 534 234 529.500 L 234 525 229.500 525 L 225 525 225 529.500 M 366 543.500 L 366 553 333 553 L 300 553 300 557.500 L 300 562 333 562 L 366 562 366 557.500 L 366 553 370.500 553 L 375 553 375 543.500 L 375 534 370.500 534 L 366 534 366 543.500" stroke="none" fill="#bababb" fill-rule="evenodd"/><path d="M 253 108 L 253 113 257.500 113 L 262 113 262 108 L 262 103 257.500 103 L 253 103 253 108 M 84 229.500 L 84 234 79.500 234 L 75 234 75 248 L 75 262 79.500 262 L 84 262 84 248 L 84 234 93.500 234 L 103 234 103 229.500 L 103 225 93.500 225 L 84 225 84 229.500 M 553 356.500 L 553 366 543.500 366 L 534 366 534 370.500 L 534 375 543.500 375 L 553 375 553 370.500 L 553 366 557.500 366 L 562 366 562 356.500 L 562 347 557.500 347 L 553 347 553 356.500 M 516 427 L 516 441 506.500 441 L 497 441 497 445.500 L 497 450 506.500 450 L 516 450 516 445.500 L 516 441 520.500 441 L 525 441 525 427 L 525 413 520.500 413 L 516 413 516 427 M 478 468.500 L 478 478 468.500 478 L 459 478 459 483 L 459 488 468.500 488 L 478 488 478 483 L 478 478 483 478 L 488 478 488 468.500 L 488 459 483 459 L 478 459 478 468.500 M 441 506.500 L 441 516 427 516 L 413 516 413 520.500 L 413 525 427 525 L 441 525 441 520.500 L 441 516 445.500 516 L 450 516 450 506.500 L 450 497 445.500 497 L 441 497 441 506.500 M 225 529.500 L 225 534 229.500 534 L 234 534 234 529.500 L 234 525 229.500 525 L 225 525 225 529.500 M 366 543.500 L 366 553 333 553 L 300 553 300 557.500 L 300 562 333 562 L 366 562 366 557.500 L 366 553 370.500 553 L 375 553 375 543.500 L 375 534 370.500 534 L 366 534 366 543.500" stroke="none" fill="#bababb" fill-rule="evenodd"/><path d="M 234 98.500 L 234 113 243.500 113 L 253 113 253 108 L 253 103 257.500 103 L 262 103 262 93.500 L 262 84 248 84 L 234 84 234 98.500 M 141 173.500 L 141 188 145.500 188 L 150 188 150 173.500 L 150 159 145.500 159 L 141 159 141 173.500 M 75 229.500 L 75 234 79.500 234 L 84 234 84 229.500 L 84 225 79.500 225 L 75 225 75 229.500 M 553 229.500 L 553 234 557.500 234 L 562 234 562 229.500 L 562 225 557.500 225 L 553 225 553 229.500 M 553 342.500 L 553 347 557.500 347 L 562 347 562 342.500 L 562 338 557.500 338 L 553 338 553 342.500 M 488 379.500 L 488 384 492.500 384 L 497 384 497 379.500 L 497 375 492.500 375 L 488 375 488 379.500 M 516 398.500 L 516 413 520.500 413 L 525 413 525 398.500 L 525 384 520.500 384 L 516 384 516 398.500 M 488 427 L 488 441 492.500 441 L 497 441 497 427 L 497 413 492.500 413 L 488 413 488 427 M 75 445.500 L 75 450 79.500 450 L 84 450 84 445.500 L 84 441 79.500 441 L 75 441 75 445.500 M 459 454.500 L 459 459 454.500 459 L 450 459 450 468.500 L 450 478 454.500 478 L 459 478 459 468.500 L 459 459 468.500 459 L 478 459 478 454.500 L 478 450 468.500 450 L 459 450 459 454.500 M 113 483 L 113 488 117.500 488 L 122 488 122 483 L 122 478 117.500 478 L 113 478 113 483 M 150 492.500 L 150 497 154.500 497 L 159 497 159 492.500 L 159 488 154.500 488 L 150 488 150 492.500 M 413 492.500 L 413 497 427 497 L 441 497 441 492.500 L 441 488 427 488 L 413 488 413 492.500 M 216 520.500 L 216 525 220.500 525 L 225 525 225 520.500 L 225 516 220.500 516 L 216 516 216 520.500 M 384 520.500 L 384 525 398.500 525 L 413 525 413 520.500 L 413 516 398.500 516 L 384 516 384 520.500 M 338 529.500 L 338 534 352 534 L 366 534 366 529.500 L 366 525 352 525 L 338 525 338 529.500 M 225 543.500 L 225 553 229.500 553 L 234 553 234 557.500 L 234 562 267 562 L 300 562 300 557.500 L 300 553 267 553 L 234 553 234 543.500 L 234 534 229.500 534 L 225 534 225 543.500" stroke="none" fill="#bfbfc0" fill-rule="evenodd"/><path d="M 572 248 L 572 262 586 262 L 600 262 600 248 L 600 234 586 234 L 572 234 572 248 M 525 436 L 525 441 529.500 441 L 534 441 534 436 L 534 431 529.500 431 L 525 431 525 436 M 84 468.500 L 84 478 93.500 478 L 103 478 103 473.500 L 103 469 98.500 469 L 94 469 94 464 L 94 459 89 459 L 84 459 84 468.500 M 488 473.500 L 488 478 492.500 478 L 497 478 497 473.500 L 497 469 492.500 469 L 488 469 488 473.500 M 131 501.500 L 131 506 136 506 L 141 506 141 501.500 L 141 497 136 497 L 131 497 131 501.500 M 450 511 L 450 516 454.500 516 L 459 516 459 511 L 459 506 454.500 506 L 450 506 450 511 M 375 548.500 L 375 553 379.500 553 L 384 553 384 548.500 L 384 544 379.500 544 L 375 544 375 548.500" stroke="none" fill="#181819" fill-rule="evenodd"/><path d="M 572 333 L 572 366 586 366 L 600 366 600 333 L 600 300 586 300 L 572 300 572 333 M 534 412.500 L 534 441 543.500 441 L 553 441 553 412.500 L 553 384 543.500 384 L 534 384 534 412.500 M 497 468.500 L 497 478 506.500 478 L 516 478 516 468.500 L 516 459 506.500 459 L 497 459 497 468.500 M 459 506.500 L 459 516 468.500 516 L 478 516 478 506.500 L 478 497 468.500 497 L 459 497 459 506.500 M 384 543.500 L 384 553 412.500 553 L 441 553 441 543.500 L 441 534 412.500 534 L 384 534 384 543.500 M 234 586 L 234 600 300 600 L 366 600 366 586 L 366 572 300 572 L 234 572 234 586" stroke="none" fill="#0a0a0b" fill-rule="evenodd"/><path d="M 534 187.500 L 534 216 543.500 216 L 553 216 553 187.500 L 553 159 543.500 159 L 534 159 534 187.500 M 572 229.500 L 572 234 567 234 L 562 234 562 304.500 L 562 375 543.500 375 L 525 375 525 403 L 525 431 529.500 431 L 534 431 534 407.500 L 534 384 543.500 384 L 553 384 553 412.500 L 553 441 539 441 L 525 441 525 445.500 L 525 450 506.500 450 L 488 450 488 459.500 L 488 469 492.500 469 L 497 469 497 464 L 497 459 506.500 459 L 516 459 516 468.500 L 516 478 502 478 L 488 478 488 483 L 488 488 469 488 L 450 488 450 497 L 450 506 454.500 506 L 459 506 459 501.500 L 459 497 468.500 497 L 478 497 478 506.500 L 478 516 464 516 L 450 516 450 520.500 L 450 525 412.500 525 L 375 525 375 534.500 L 375 544 379.500 544 L 384 544 384 539 L 384 534 412.500 534 L 441 534 441 543.500 L 441 553 408 553 L 375 553 375 557.500 L 375 562 300 562 L 225 562 225 581 L 225 600 229.500 600 L 234 600 234 586 L 234 572 300 572 L 366 572 366 586 L 366 600 370.500 600 L 375 600 375 581 L 375 562 408 562 L 441 562 441 557.500 L 441 553 445.500 553 L 450 553 450 539 L 450 525 464 525 L 478 525 478 520.500 L 478 516 483 516 L 488 516 488 502 L 488 488 502 488 L 516 488 516 483 L 516 478 520.500 478 L 525 478 525 464 L 525 450 539 450 L 553 450 553 445.500 L 553 441 557.500 441 L 562 441 562 408 L 562 375 581 375 L 600 375 600 370.500 L 600 366 586 366 L 572 366 572 300 L 572 234 586 234 L 600 234 600 229.500 L 600 225 586 225 L 572 225 572 229.500 M 47 412.500 L 47 441 61 441 L 75 441 75 427 L 75 413 70.500 413 L 66 413 66 398.500 L 66 384 56.500 384 L 47 384 47 412.500 M 84 454.500 L 84 459 79.500 459 L 75 459 75 468.500 L 75 478 79.500 478 L 84 478 84 483 L 84 488 93.500 488 L 103 488 103 483 L 103 478 108 478 L 113 478 113 468.500 L 113 459 108 459 L 103 459 103 454.500 L 103 450 93.500 450 L 84 450 84 454.500 M 84 468.500 L 84 478 93.500 478 L 103 478 103 473.500 L 103 469 98.500 469 L 94 469 94 464 L 94 459 89 459 L 84 459 84 468.500 M 122 492.500 L 122 497 117.500 497 L 113 497 113 506.500 L 113 516 117.500 516 L 122 516 122 520.500 L 122 525 131.500 525 L 141 525 141 520.500 L 141 516 145.500 516 L 150 516 150 506.500 L 150 497 145.500 497 L 141 497 141 492.500 L 141 488 131.500 488 L 122 488 122 492.500 M 122 506.500 L 122 516 131.500 516 L 141 516 141 506.500 L 141 497 131.500 497 L 122 497 122 506.500 M 159 529.500 L 159 534 154.500 534 L 150 534 150 543.500 L 150 553 154.500 553 L 159 553 159 557.500 L 159 562 187.500 562 L 216 562 216 557.500 L 216 553 220.500 553 L 225 553 225 539 L 225 525 192 525 L 159 525 159 529.500 M 159 543.500 L 159 553 187.500 553 L 216 553 216 543.500 L 216 534 187.500 534 L 159 534 159 543.500" stroke="none" fill="#1a1a1b" fill-rule="evenodd"/><path d="M 262 89 L 262 103 267 103 L 272 103 272 93.500 L 272 84 286 84 L 300 84 300 79.500 L 300 75 281 75 L 262 75 262 89 M 366 79.500 L 366 84 370.500 84 L 375 84 375 79.500 L 375 75 370.500 75 L 366 75 366 79.500 M 113 206.500 L 113 225 108 225 L 103 225 103 229.500 L 103 234 93.500 234 L 84 234 84 248 L 84 262 93.500 262 L 103 262 103 257.500 L 103 253 108 253 L 113 253 113 239 L 113 225 117.500 225 L 122 225 122 206.500 L 122 188 117.500 188 L 113 188 113 206.500 M 525 370.500 L 525 375 520.500 375 L 516 375 516 379.500 L 516 384 520.500 384 L 525 384 525 379.500 L 525 375 529.500 375 L 534 375 534 370.500 L 534 366 529.500 366 L 525 366 525 370.500 M 450 454.500 L 450 459 454.500 459 L 459 459 459 454.500 L 459 450 454.500 450 L 450 450 450 454.500 M 375 492.500 L 375 497 379.500 497 L 384 497 384 492.500 L 384 488 379.500 488 L 375 488 375 492.500 M 150 520.500 L 150 525 154.500 525 L 159 525 159 520.500 L 159 516 154.500 516 L 150 516 150 520.500 M 375 520.500 L 375 525 379.500 525 L 384 525 384 520.500 L 384 516 379.500 516 L 375 516 375 520.500" stroke="none" fill="#b8b9bb" fill-rule="evenodd"/><path d="M 234 14 L 234 28 262.500 28 L 291 28 291 33 L 291 38 314.500 38 L 338 38 338 33 L 338 28 314.500 28 L 291 28 291 14 L 291 0 262.500 0 L 234 0 234 14 M 366 33 L 366 38 370.500 38 L 375 38 375 33 L 375 28 370.500 28 L 366 28 366 33 M 159 42.500 L 159 47 154.500 47 L 150 47 150 56.500 L 150 66 154.500 66 L 159 66 159 70.500 L 159 75 178 75 L 197 75 197 70.500 L 197 66 178 66 L 159 66 159 56.500 L 159 47 187.500 47 L 216 47 216 42.500 L 216 38 187.500 38 L 159 38 159 42.500 M 141 79.500 L 141 84 145.500 84 L 150 84 150 79.500 L 150 75 145.500 75 L 141 75 141 79.500 M 113 108 L 113 113 108 113 L 103 113 103 117.500 L 103 122 108 122 L 113 122 113 117.500 L 113 113 117.500 113 L 122 113 122 108 L 122 103 117.500 103 L 113 103 113 108 M 141 108 L 141 113 145.500 113 L 150 113 150 108 L 150 103 145.500 103 L 141 103 141 108 M 75 145.500 L 75 150 79.500 150 L 84 150 84 145.500 L 84 141 79.500 141 L 75 141 75 145.500 M 103 145.500 L 103 150 108 150 L 113 150 113 145.500 L 113 141 108 141 L 103 141 103 145.500 M 47 154.500 L 47 159 42.500 159 L 38 159 38 173.500 L 38 188 42.500 188 L 47 188 47 173.500 L 47 159 56.500 159 L 66 159 66 173.500 L 66 188 70.500 188 L 75 188 75 173.500 L 75 159 70.500 159 L 66 159 66 154.500 L 66 150 56.500 150 L 47 150 47 154.500 M 441 154.500 L 441 159 445.500 159 L 450 159 450 154.500 L 450 150 445.500 150 L 441 150 441 154.500 M 403 168.500 L 403 178 408 178 L 413 178 413 168.500 L 413 159 408 159 L 403 159 403 168.500 M 272 225 L 272 253 300 253 L 328 253 328 225 L 328 197 300 197 L 272 197 272 225 M 38 220.500 L 38 225 33 225 L 28 225 28 229.500 L 28 234 33 234 L 38 234 38 229.500 L 38 225 42.500 225 L 47 225 47 220.500 L 47 216 42.500 216 L 38 216 38 220.500 M 66 220.500 L 66 225 70.500 225 L 75 225 75 220.500 L 75 216 70.500 216 L 66 216 66 220.500 M 384 267 L 384 272 379.500 272 L 375 272 375 281.500 L 375 291 379.500 291 L 384 291 384 295.500 L 384 300 393.500 300 L 403 300 403 295.500 L 403 291 408 291 L 413 291 413 281.500 L 413 272 408 272 L 403 272 403 267 L 403 262 393.500 262 L 384 262 384 267 M 384 281.500 L 384 291 393.500 291 L 403 291 403 281.500 L 403 272 393.500 272 L 384 272 384 281.500 M 413 319 L 413 338 417.500 338 L 422 338 422 319 L 422 300 417.500 300 L 413 300 413 319 M 272 356 L 272 403 300 403 L 328 403 328 356 L 328 309 300 309 L 272 309 272 356 M 488 342.500 L 488 347 492.500 347 L 497 347 497 342.500 L 497 338 492.500 338 L 488 338 488 342.500 M 516 352 L 516 366 502 366 L 488 366 488 370.500 L 488 375 502 375 L 516 375 516 370.500 L 516 366 520.500 366 L 525 366 525 352 L 525 338 520.500 338 L 516 338 516 352 M 450 398.500 L 450 413 464 413 L 478 413 478 408 L 478 403 468.500 403 L 459 403 459 393.500 L 459 384 454.500 384 L 450 384 450 398.500 M 375 417.500 L 375 422 379.500 422 L 384 422 384 417.500 L 384 413 379.500 413 L 375 413 375 417.500 M 150 469 L 150 488 164 488 L 178 488 178 483 L 178 478 168.500 478 L 159 478 159 464 L 159 450 154.500 450 L 150 450 150 469 M 234 502 L 234 516 248 516 L 262 516 262 506.500 L 262 497 281 497 L 300 497 300 506.500 L 300 516 319 516 L 338 516 338 502 L 338 488 286 488 L 234 488 234 502 M 366 520.500 L 366 525 370.500 525 L 375 525 375 520.500 L 375 516 370.500 516 L 366 516 366 520.500" stroke="none" fill="#6a6b74" fill-rule="evenodd"/><path d="M 291 14 L 291 28 309.500 28 L 328 28 328 14 L 328 0 309.500 0 L 291 0 291 14 M 366 14 L 366 28 352 28 L 338 28 338 33 L 338 38 352 38 L 366 38 366 33 L 366 28 370.500 28 L 375 28 375 14 L 375 0 370.500 0 L 366 0 366 14 M 159 56.500 L 159 66 173.500 66 L 188 66 188 56.500 L 188 47 173.500 47 L 159 47 159 56.500 M 216 56.500 L 216 66 206.500 66 L 197 66 197 70.500 L 197 75 206.500 75 L 216 75 216 70.500 L 216 66 220.500 66 L 225 66 225 56.500 L 225 47 220.500 47 L 216 47 216 56.500 M 122 79.500 L 122 84 117.500 84 L 113 84 113 93.500 L 113 103 117.500 103 L 122 103 122 108 L 122 113 131.500 113 L 141 113 141 108 L 141 103 145.500 103 L 150 103 150 93.500 L 150 84 145.500 84 L 141 84 141 79.500 L 141 75 131.500 75 L 122 75 122 79.500 M 122 93.500 L 122 103 131.500 103 L 141 103 141 93.500 L 141 84 131.500 84 L 122 84 122 93.500 M 84 117.500 L 84 122 79.500 122 L 75 122 75 131.500 L 75 141 79.500 141 L 84 141 84 145.500 L 84 150 93.500 150 L 103 150 103 145.500 L 103 141 108 141 L 113 141 113 131.500 L 113 122 108 122 L 103 122 103 117.500 L 103 113 93.500 113 L 84 113 84 117.500 M 84 131.500 L 84 141 93.500 141 L 103 141 103 131.500 L 103 122 93.500 122 L 84 122 84 131.500 M 413 187.500 L 413 225 417.500 225 L 422 225 422 201.500 L 422 178 431.500 178 L 441 178 441 183 L 441 188 445.500 188 L 450 188 450 173.500 L 450 159 445.500 159 L 441 159 441 154.500 L 441 150 427 150 L 413 150 413 187.500 M 47 168.500 L 47 178 56.500 178 L 66 178 66 168.500 L 66 159 56.500 159 L 47 159 47 168.500 M 38 202 L 38 216 42.500 216 L 47 216 47 220.500 L 47 225 56.500 225 L 66 225 66 220.500 L 66 216 70.500 216 L 75 216 75 202 L 75 188 70.500 188 L 66 188 66 202 L 66 216 56.500 216 L 47 216 47 202 L 47 188 42.500 188 L 38 188 38 202 M 0 229.500 L 0 234 14 234 L 28 234 28 248 L 28 262 33 262 L 38 262 38 248 L 38 234 33 234 L 28 234 28 229.500 L 28 225 14 225 L 0 225 0 229.500 M 384 281.500 L 384 291 393.500 291 L 403 291 403 281.500 L 403 272 393.500 272 L 384 272 384 281.500 M 422 314 L 422 328 431.500 328 L 441 328 441 333 L 441 338 445.500 338 L 450 338 450 319 L 450 300 436 300 L 422 300 422 314 M 413 375.500 L 413 413 398.500 413 L 384 413 384 417.500 L 384 422 379.500 422 L 375 422 375 436 L 375 450 379.500 450 L 384 450 384 436 L 384 422 398.500 422 L 413 422 413 417.500 L 413 413 417.500 413 L 422 413 422 375.500 L 422 338 417.500 338 L 413 338 413 375.500 M 497 342.500 L 497 347 492.500 347 L 488 347 488 356.500 L 488 366 502 366 L 516 366 516 352 L 516 338 506.500 338 L 497 338 497 342.500 M 159 454.500 L 159 459 173.500 459 L 188 459 188 454.500 L 188 450 173.500 450 L 159 450 159 454.500 M 178 483 L 178 488 183 488 L 188 488 188 483 L 188 478 183 478 L 178 478 178 483 M 366 502 L 366 516 352 516 L 338 516 338 520.500 L 338 525 352 525 L 366 525 366 520.500 L 366 516 370.500 516 L 375 516 375 502 L 375 488 370.500 488 L 366 488 366 502" stroke="none" fill="#61626c" fill-rule="evenodd"/><path d="M 366 42.500 L 366 47 370.500 47 L 375 47 375 42.500 L 375 38 370.500 38 L 366 38 366 42.500 M 225 94 L 225 113 229.500 113 L 234 113 234 98.500 L 234 84 248 84 L 262 84 262 79.500 L 262 75 243.500 75 L 225 75 225 94 M 441 79.500 L 441 84 445.500 84 L 450 84 450 79.500 L 450 75 445.500 75 L 441 75 441 79.500 M 441 108 L 441 113 445.500 113 L 450 113 450 117.500 L 450 122 464 122 L 478 122 478 136 L 478 150 483 150 L 488 150 488 154.500 L 488 159 502 159 L 516 159 516 192 L 516 225 520.500 225 L 525 225 525 295.500 L 525 366 539 366 L 553 366 553 352 L 553 338 557.500 338 L 562 338 562 286 L 562 234 557.500 234 L 553 234 553 229.500 L 553 225 539 225 L 525 225 525 187.500 L 525 150 506.500 150 L 488 150 488 131.500 L 488 113 469 113 L 450 113 450 108 L 450 103 445.500 103 L 441 103 441 108 M 113 169 L 113 188 127 188 L 141 188 141 173.500 L 141 159 145.500 159 L 150 159 150 154.500 L 150 150 131.500 150 L 113 150 113 169 M 488 220.500 L 488 225 492.500 225 L 497 225 497 220.500 L 497 216 492.500 216 L 488 216 488 220.500 M 534 248 L 534 262 543.500 262 L 553 262 553 248 L 553 234 543.500 234 L 534 234 534 248 M 38 356.500 L 38 375 56.500 375 L 75 375 75 408 L 75 441 79.500 441 L 84 441 84 445.500 L 84 450 98.500 450 L 113 450 113 464 L 113 478 117.500 478 L 122 478 122 483 L 122 488 136 488 L 150 488 150 469 L 150 450 131.500 450 L 113 450 113 431.500 L 113 413 108 413 L 103 413 103 427 L 103 441 93.500 441 L 84 441 84 408 L 84 375 79.500 375 L 75 375 75 370.500 L 75 366 61 366 L 47 366 47 352 L 47 338 42.500 338 L 38 338 38 356.500 M 103 379.500 L 103 384 108 384 L 113 384 113 379.500 L 113 375 108 375 L 103 375 103 379.500 M 497 379.500 L 497 384 492.500 384 L 488 384 488 398.500 L 488 413 492.500 413 L 497 413 497 427 L 497 441 506.500 441 L 516 441 516 408 L 516 375 506.500 375 L 497 375 497 379.500 M 122 468.500 L 122 478 131.500 478 L 141 478 141 468.500 L 141 459 131.500 459 L 122 459 122 468.500 M 459 468.500 L 459 478 468.500 478 L 478 478 478 468.500 L 478 459 468.500 459 L 459 459 459 468.500 M 159 492.500 L 159 497 154.500 497 L 150 497 150 506.500 L 150 516 154.500 516 L 159 516 159 520.500 L 159 525 187.500 525 L 216 525 216 520.500 L 216 516 220.500 516 L 225 516 225 502 L 225 488 192 488 L 159 488 159 492.500 M 384 492.500 L 384 497 379.500 497 L 375 497 375 506.500 L 375 516 408 516 L 441 516 441 506.500 L 441 497 427 497 L 413 497 413 492.500 L 413 488 398.500 488 L 384 488 384 492.500 M 234 539 L 234 553 300 553 L 366 553 366 543.500 L 366 534 352 534 L 338 534 338 529.500 L 338 525 286 525 L 234 525 234 539" stroke="none" fill="#c3c3c5" fill-rule="evenodd"/><path d="M 253 183 L 253 188 257.500 188 L 262 188 262 183 L 262 178 257.500 178 L 253 178 253 183 M 338 183 L 338 188 342.500 188 L 347 188 347 183 L 347 178 342.500 178 L 338 178 338 183 M 366 192.500 L 366 197 370.500 197 L 375 197 375 192.500 L 375 188 370.500 188 L 366 188 366 192.500 M 366 257.500 L 366 262 370.500 262 L 375 262 375 257.500 L 375 253 370.500 253 L 366 253 366 257.500 M 253 267 L 253 272 257.500 272 L 262 272 262 267 L 262 262 257.500 262 L 253 262 253 267 M 338 267 L 338 272 342.500 272 L 347 272 347 267 L 347 262 342.500 262 L 338 262 338 267 M 253 295.500 L 253 300 257.500 300 L 262 300 262 295.500 L 262 291 257.500 291 L 253 291 253 295.500 M 338 295.500 L 338 300 342.500 300 L 347 300 347 295.500 L 347 291 342.500 291 L 338 291 338 295.500 M 366 304.500 L 366 309 370.500 309 L 375 309 375 304.500 L 375 300 370.500 300 L 366 300 366 304.500 M 366 408 L 366 413 370.500 413 L 375 413 375 408 L 375 403 370.500 403 L 366 403 366 408 M 253 417.500 L 253 422 257.500 422 L 262 422 262 417.500 L 262 413 257.500 413 L 253 413 253 417.500 M 338 417.500 L 338 422 342.500 422 L 347 422 347 417.500 L 347 413 342.500 413 L 338 413 338 417.500" stroke="none" fill="#fefefe" fill-rule="evenodd"/><path d="M 225 117.500 L 225 122 206.500 122 L 188 122 188 131.500 L 188 141 173.500 141 L 159 141 159 145.500 L 159 150 173.500 150 L 188 150 188 145.500 L 188 141 281.500 141 L 375 141 375 127 L 375 113 300 113 L 225 113 225 117.500 M 413 131.500 L 413 141 417.500 141 L 422 141 422 131.500 L 422 122 417.500 122 L 413 122 413 131.500 M 459 154.500 L 459 159 468.500 159 L 478 159 478 192 L 478 225 483 225 L 488 225 488 192 L 488 159 483 159 L 478 159 478 154.500 L 478 150 468.500 150 L 459 150 459 154.500 M 141 229.500 L 141 234 131.500 234 L 122 234 122 248 L 122 262 136 262 L 150 262 150 243.500 L 150 225 145.500 225 L 141 225 141 229.500 M 84 319 L 84 338 79.500 338 L 75 338 75 352 L 75 366 79.500 366 L 84 366 84 370.500 L 84 375 93.500 375 L 103 375 103 370.500 L 103 366 93.500 366 L 84 366 84 352 L 84 338 98.500 338 L 113 338 113 319 L 113 300 98.500 300 L 84 300 84 319" stroke="none" fill="#a0a2a9" fill-rule="evenodd"/><path d="M 300 79.500 L 300 84 286 84 L 272 84 272 93.500 L 272 103 267 103 L 262 103 262 108 L 262 113 318.500 113 L 375 113 375 98.500 L 375 84 370.500 84 L 366 84 366 79.500 L 366 75 333 75 L 300 75 300 79.500 M 150 127 L 150 141 154.500 141 L 159 141 159 131.500 L 159 122 173.500 122 L 188 122 188 117.500 L 188 113 169 113 L 150 113 150 127 M 422 117.500 L 422 122 436 122 L 450 122 450 117.500 L 450 113 436 113 L 422 113 422 117.500 M 122 206.500 L 122 225 136 225 L 150 225 150 206.500 L 150 188 136 188 L 122 188 122 206.500 M 103 257.500 L 103 262 89 262 L 75 262 75 281 L 75 300 79.500 300 L 84 300 84 295.500 L 84 291 93.500 291 L 103 291 103 281.500 L 103 272 108 272 L 113 272 113 262.500 L 113 253 108 253 L 103 253 103 257.500 M 553 370.500 L 553 375 557.500 375 L 562 375 562 370.500 L 562 366 557.500 366 L 553 366 553 370.500 M 488 445.500 L 488 450 483 450 L 478 450 478 454.500 L 478 459 483 459 L 488 459 488 454.500 L 488 450 492.500 450 L 497 450 497 445.500 L 497 441 492.500 441 L 488 441 488 445.500 M 516 445.500 L 516 450 520.500 450 L 525 450 525 445.500 L 525 441 520.500 441 L 516 441 516 445.500 M 450 483 L 450 488 445.500 488 L 441 488 441 492.500 L 441 497 445.500 497 L 450 497 450 492.500 L 450 488 454.500 488 L 459 488 459 483 L 459 478 454.500 478 L 450 478 450 483 M 478 483 L 478 488 483 488 L 488 488 488 483 L 488 478 483 478 L 478 478 478 483 M 441 520.500 L 441 525 445.500 525 L 450 525 450 520.500 L 450 516 445.500 516 L 441 516 441 520.500 M 366 529.500 L 366 534 370.500 534 L 375 534 375 529.500 L 375 525 370.500 525 L 366 525 366 529.500 M 225 557.500 L 225 562 229.500 562 L 234 562 234 557.500 L 234 553 229.500 553 L 225 553 225 557.500 M 366 557.500 L 366 562 370.500 562 L 375 562 375 557.500 L 375 553 370.500 553 L 366 553 366 557.500" stroke="none" fill="#acafbb" fill-rule="evenodd"/><path d="M 216 33 L 216 38 220.500 38 L 225 38 225 56.500 L 225 75 187.500 75 L 150 75 150 70.500 L 150 66 145.500 66 L 141 66 141 70.500 L 141 75 145.500 75 L 150 75 150 94 L 150 113 131.500 113 L 113 113 113 108 L 113 103 108 103 L 103 103 103 108 L 103 113 108 113 L 113 113 113 131.500 L 113 150 94 150 L 75 150 75 145.500 L 75 141 70.500 141 L 66 141 66 145.500 L 66 150 70.500 150 L 75 150 75 187.500 L 75 225 56.500 225 L 38 225 38 220.500 L 38 216 33 216 L 28 216 28 220.500 L 28 225 33 225 L 38 225 38 281.500 L 38 338 42.500 338 L 47 338 47 352 L 47 366 61 366 L 75 366 75 295.500 L 75 225 94 225 L 113 225 113 187.500 L 113 150 131.500 150 L 150 150 150 131.500 L 150 113 187.500 113 L 225 113 225 94 L 225 75 300 75 L 375 75 375 94 L 375 113 408 113 L 441 113 441 108 L 441 103 445.500 103 L 450 103 450 93.500 L 450 84 445.500 84 L 441 84 441 79.500 L 441 75 408 75 L 375 75 375 61 L 375 47 370.500 47 L 366 47 366 42.500 L 366 38 295.500 38 L 225 38 225 33 L 225 28 220.500 28 L 216 28 216 33 M 375 33 L 375 38 379.500 38 L 384 38 384 33 L 384 28 379.500 28 L 375 28 375 33 M 234 56.500 L 234 66 267 66 L 300 66 300 56.500 L 300 47 267 47 L 234 47 234 56.500 M 450 70.500 L 450 75 454.500 75 L 459 75 459 70.500 L 459 66 454.500 66 L 450 66 450 70.500 M 159 93.500 L 159 103 187.500 103 L 216 103 216 93.500 L 216 84 187.500 84 L 159 84 159 93.500 M 488 108 L 488 113 492.500 113 L 497 113 497 108 L 497 103 492.500 103 L 488 103 488 108 M 122 131.500 L 122 141 131.500 141 L 141 141 141 131.500 L 141 122 131.500 122 L 122 122 122 131.500 M 450 136 L 450 150 464 150 L 478 150 478 136 L 478 122 464 122 L 450 122 450 136 M 525 145.500 L 525 150 529.500 150 L 534 150 534 145.500 L 534 141 529.500 141 L 525 141 525 145.500 M 188 154.500 L 188 159 192.500 159 L 197 159 197 154.500 L 197 150 192.500 150 L 188 150 188 154.500 M 366 154.500 L 366 159 370.500 159 L 375 159 375 154.500 L 375 150 370.500 150 L 366 150 366 154.500 M 84 173.500 L 84 188 93.500 188 L 103 188 103 173.500 L 103 159 93.500 159 L 84 159 84 173.500 M 488 187.500 L 488 216 492.500 216 L 497 216 497 220.500 L 497 225 506.500 225 L 516 225 516 192 L 516 159 502 159 L 488 159 488 187.500 M 403 225 L 403 262 408 262 L 413 262 413 225 L 413 188 408 188 L 403 188 403 225 M 562 220.500 L 562 225 567 225 L 572 225 572 220.500 L 572 216 567 216 L 562 216 562 220.500 M 534 248 L 534 262 543.500 262 L 553 262 553 248 L 553 234 543.500 234 L 534 234 534 248 M 403 304.500 L 403 309 408 309 L 413 309 413 304.500 L 413 300 408 300 L 403 300 403 304.500 M 403 375.500 L 403 413 408 413 L 413 413 413 375.500 L 413 338 408 338 L 403 338 403 375.500 M 28 379.500 L 28 384 33 384 L 38 384 38 379.500 L 38 375 33 375 L 28 375 28 379.500 M 84 408 L 84 441 93.500 441 L 103 441 103 427 L 103 413 108 413 L 113 413 113 398.500 L 113 384 108 384 L 103 384 103 379.500 L 103 375 93.500 375 L 84 375 84 408 M 562 379.500 L 562 384 567 384 L 572 384 572 379.500 L 572 375 567 375 L 562 375 562 379.500 M 188 445.500 L 188 450 281.500 450 L 375 450 375 445.500 L 375 441 281.500 441 L 188 441 188 445.500 M 66 454.500 L 66 459 70.500 459 L 75 459 75 454.500 L 75 450 70.500 450 L 66 450 66 454.500 M 525 454.500 L 525 459 529.500 459 L 534 459 534 454.500 L 534 450 529.500 450 L 525 450 525 454.500 M 122 468.500 L 122 478 131.500 478 L 141 478 141 468.500 L 141 459 131.500 459 L 122 459 122 468.500 M 103 492.500 L 103 497 108 497 L 113 497 113 492.500 L 113 488 108 488 L 103 488 103 492.500 M 488 492.500 L 488 497 492.500 497 L 497 497 497 492.500 L 497 488 492.500 488 L 488 488 488 492.500 M 141 529.500 L 141 534 145.500 534 L 150 534 150 529.500 L 150 525 145.500 525 L 141 525 141 529.500 M 450 529.500 L 450 534 454.500 534 L 459 534 459 529.500 L 459 525 454.500 525 L 450 525 450 529.500 M 216 567 L 216 572 220.500 572 L 225 572 225 567 L 225 562 220.500 562 L 216 562 216 567 M 375 567 L 375 572 379.500 572 L 384 572 384 567 L 384 562 379.500 562 L 375 562 375 567" stroke="none" fill="#eeeef1" fill-rule="evenodd"/><path d="M 338 14 L 338 28 352 28 L 366 28 366 14 L 366 0 352 0 L 338 0 338 14 M 375 42.500 L 375 47 379.500 47 L 384 47 384 42.500 L 384 38 379.500 38 L 375 38 375 42.500 M 375 70.500 L 375 75 379.500 75 L 384 75 384 70.500 L 384 66 379.500 66 L 375 66 375 70.500 M 441 70.500 L 441 75 445.500 75 L 450 75 450 70.500 L 450 66 445.500 66 L 441 66 441 70.500 M 478 79.500 L 478 84 483 84 L 488 84 488 79.500 L 488 75 483 75 L 478 75 478 79.500 M 122 93.500 L 122 103 131.500 103 L 141 103 141 93.500 L 141 84 131.500 84 L 122 84 122 93.500 M 516 117.500 L 516 122 520.500 122 L 525 122 525 117.500 L 525 113 520.500 113 L 516 113 516 117.500 M 84 131.500 L 84 141 93.500 141 L 103 141 103 131.500 L 103 122 93.500 122 L 84 122 84 131.500 M 47 202 L 47 216 56.500 216 L 66 216 66 202 L 66 188 56.500 188 L 47 188 47 202 M 422 206.500 L 422 225 431.500 225 L 441 225 441 206.500 L 441 188 431.500 188 L 422 188 422 206.500 M 413 243.500 L 413 253 417.500 253 L 422 253 422 243.500 L 422 234 417.500 234 L 413 234 413 243.500 M 0 257.500 L 0 262 14 262 L 28 262 28 257.500 L 28 253 14 253 L 0 253 0 257.500 M 441 257.500 L 441 262 445.500 262 L 450 262 450 257.500 L 450 253 445.500 253 L 441 253 441 257.500 M 422 375.500 L 422 413 436 413 L 450 413 450 408 L 450 403 445.500 403 L 441 403 441 370.500 L 441 338 431.500 338 L 422 338 422 375.500 M 478 431.500 L 478 441 464 441 L 450 441 450 445.500 L 450 450 445.500 450 L 441 450 441 464 L 441 478 427 478 L 413 478 413 483 L 413 488 427 488 L 441 488 441 483 L 441 478 445.500 478 L 450 478 450 464 L 450 450 464 450 L 478 450 478 445.500 L 478 441 483 441 L 488 441 488 431.500 L 488 422 483 422 L 478 422 478 431.500 M 384 445.500 L 384 450 398.500 450 L 413 450 413 445.500 L 413 441 398.500 441 L 384 441 384 445.500 M 188 454.500 L 188 459 281.500 459 L 375 459 375 454.500 L 375 450 281.500 450 L 188 450 188 454.500 M 188 483 L 188 488 206.500 488 L 225 488 225 483 L 225 478 206.500 478 L 188 478 188 483 M 347 492.500 L 347 497 356.500 497 L 366 497 366 492.500 L 366 488 356.500 488 L 347 488 347 492.500" stroke="none" fill="#575759" fill-rule="evenodd"/><path d="M 572 281 L 572 300 586 300 L 600 300 600 281 L 600 262 586 262 L 572 262 572 281 M 122 506.500 L 122 516 131.500 516 L 141 516 141 511 L 141 506 136 506 L 131 506 131 501.500 L 131 497 126.500 497 L 122 497 122 506.500 M 159 543.500 L 159 553 187.500 553 L 216 553 216 543.500 L 216 534 187.500 534 L 159 534 159 543.500" stroke="none" fill="#131315" fill-rule="evenodd"/><path d="M 572 281 L 572 300 586 300 L 600 300 600 281 L 600 262 586 262 L 572 262 572 281 M 122 506.500 L 122 516 131.500 516 L 141 516 141 511 L 141 506 136 506 L 131 506 131 501.500 L 131 497 126.500 497 L 122 497 122 506.500 M 159 543.500 L 159 553 187.500 553 L 216 553 216 543.500 L 216 534 187.500 534 L 159 534 159 543.500" stroke="none" fill="#131315" fill-rule="evenodd"/></svg>