<svg xmlns="http://www.w3.org/2000/svg" width="500" height="500" viewBox="0 0 500 500" version="1.1"><path d="M 51.490 185.170 C 51.211 185.901, 51.098 215.215, 51.241 250.310 L 51.500 314.120 96.423 314.031 C 125.342 313.974, 142.976 313.550, 145.923 312.842 C 154.829 310.702, 162.965 306.051, 169.886 299.145 C 177.289 291.757, 181.174 285.270, 183.467 276.465 C 185.639 268.126, 185.639 230.874, 183.467 222.535 C 178.993 205.357, 164.036 190.749, 145.972 185.913 C 139.064 184.063, 52.175 183.380, 51.490 185.170 M 194.667 184.667 C 194.300 185.033, 194 192.458, 194 201.167 L 194 217 217 217 L 240 217 240 265.500 C 240 292.175, 240.338 314.009, 240.750 314.020 C 241.162 314.030, 248.700 314.075, 257.500 314.120 L 273.500 314.200 273.760 265.600 L 274.019 217 297.510 217 L 321 217 321 201.107 C 321 187.537, 320.769 185.125, 319.418 184.607 C 317.251 183.775, 195.500 183.834, 194.667 184.667 M 340.463 185.241 C 340.198 185.934, 340.098 215.213, 340.241 250.306 L 340.500 314.111 356.500 314.112 L 372.500 314.114 373 295.307 L 373.500 276.500 401.500 276 L 429.500 275.500 429.500 259.500 L 429.500 243.500 401.220 243.234 L 372.940 242.969 373.220 230.234 L 373.500 217.500 410.775 217.238 L 448.049 216.976 447.775 200.738 L 447.500 184.500 394.222 184.241 C 352.132 184.037, 340.843 184.247, 340.463 185.241 M 85 249.500 L 85 282 109.750 281.994 C 123.689 281.991, 136.125 281.538, 138.219 280.956 C 142.986 279.632, 147.897 275.491, 149.636 271.329 C 151.561 266.721, 151.561 232.279, 149.636 227.671 C 147.897 223.509, 142.986 219.368, 138.219 218.044 C 136.125 217.462, 123.689 217.009, 109.750 217.006 L 85 217 85 249.500" stroke="none" fill="#0a0b0b" fill-rule="evenodd"/><path d="M 98.187 3.561 C 91.965 4.275, 86.340 5.289, 85.687 5.814 C 85.034 6.339, 82.925 7.093, 81 7.489 C 74.290 8.870, 65.491 12.203, 59.899 15.480 C 56.802 17.295, 53.349 19.072, 52.226 19.428 C 51.103 19.785, 49.932 20.734, 49.624 21.538 C 49.315 22.342, 48.359 23, 47.499 23 C 45.130 23, 23.721 44.920, 21.617 49.500 C 20.606 51.700, 19.266 53.950, 18.639 54.500 C 17.373 55.612, 11.390 68.556, 10.551 72 C 10.484 72.275, 9.922 73.409, 9.303 74.520 C 7.698 77.396, 5.254 90.077, 4.436 99.772 C 4.052 104.322, 3.347 108.286, 2.869 108.581 C 1.727 109.286, 1.727 388.714, 2.869 389.419 C 3.347 389.714, 4.052 393.678, 4.436 398.228 C 5.254 407.923, 7.698 420.604, 9.303 423.480 C 9.922 424.591, 10.484 425.725, 10.551 426 C 11.390 429.444, 17.373 442.388, 18.639 443.500 C 19.266 444.050, 20.593 446.268, 21.588 448.428 C 23.683 452.978, 45.149 475, 47.489 475 C 48.355 475, 49.315 475.658, 49.624 476.462 C 49.932 477.266, 51.103 478.215, 52.226 478.572 C 53.349 478.928, 56.802 480.705, 59.899 482.520 C 65.237 485.649, 76.448 489.993, 79.218 490.006 C 79.923 490.010, 81.795 490.688, 83.377 491.513 C 84.960 492.338, 92.315 493.686, 99.723 494.507 C 119.733 496.725, 379.267 496.725, 399.277 494.507 C 406.685 493.686, 414.040 492.338, 415.623 491.513 C 417.205 490.688, 419.077 490.010, 419.782 490.006 C 422.552 489.993, 433.763 485.649, 439.101 482.520 C 442.198 480.705, 445.651 478.928, 446.774 478.572 C 447.897 478.215, 449.068 477.266, 449.376 476.462 C 449.685 475.658, 450.645 475, 451.511 475 C 453.851 475, 475.317 452.978, 477.412 448.428 C 478.407 446.268, 479.734 444.050, 480.361 443.500 C 481.627 442.388, 487.610 429.444, 488.449 426 C 488.516 425.725, 489.078 424.591, 489.697 423.480 C 491.302 420.604, 493.746 407.923, 494.564 398.228 C 494.948 393.678, 495.653 389.714, 496.131 389.419 C 497.273 388.714, 497.273 109.286, 496.131 108.581 C 495.653 108.286, 494.948 104.322, 494.564 99.772 C 493.746 90.077, 491.302 77.396, 489.697 74.520 C 489.078 73.409, 488.516 72.275, 488.449 72 C 487.610 68.556, 481.627 55.612, 480.361 54.500 C 479.734 53.950, 478.394 51.700, 477.383 49.500 C 475.279 44.920, 453.870 23, 451.501 23 C 450.641 23, 449.685 22.342, 449.376 21.538 C 449.068 20.734, 447.897 19.785, 446.774 19.428 C 445.651 19.072, 442.198 17.295, 439.101 15.480 C 433.763 12.351, 422.552 8.007, 419.782 7.994 C 419.077 7.990, 417.205 7.312, 415.623 6.487 C 414.040 5.662, 406.685 4.314, 399.277 3.493 C 380.805 1.445, 116.096 1.504, 98.187 3.561 M 51.490 185.170 C 51.211 185.901, 51.098 215.215, 51.241 250.310 L 51.500 314.120 96.423 314.031 C 125.342 313.974, 142.976 313.550, 145.923 312.842 C 154.829 310.702, 162.965 306.051, 169.886 299.145 C 177.289 291.757, 181.174 285.270, 183.467 276.465 C 185.639 268.126, 185.639 230.874, 183.467 222.535 C 178.993 205.357, 164.036 190.749, 145.972 185.913 C 139.064 184.063, 52.175 183.380, 51.490 185.170 M 194.667 184.667 C 194.300 185.033, 194 192.458, 194 201.167 L 194 217 217 217 L 240 217 240 265.500 C 240 292.175, 240.338 314.009, 240.750 314.020 C 241.162 314.030, 248.700 314.075, 257.500 314.120 L 273.500 314.200 273.760 265.600 L 274.019 217 297.510 217 L 321 217 321 201.107 C 321 187.537, 320.769 185.125, 319.418 184.607 C 317.251 183.775, 195.500 183.834, 194.667 184.667 M 340.463 185.241 C 340.198 185.934, 340.098 215.213, 340.241 250.306 L 340.500 314.111 356.500 314.112 L 372.500 314.114 373 295.307 L 373.500 276.500 401.500 276 L 429.500 275.500 429.500 259.500 L 429.500 243.500 401.220 243.234 L 372.940 242.969 373.220 230.234 L 373.500 217.500 410.775 217.238 L 448.049 216.976 447.775 200.738 L 447.500 184.500 394.222 184.241 C 352.132 184.037, 340.843 184.247, 340.463 185.241 M 85 249.500 L 85 282 109.750 281.994 C 123.689 281.991, 136.125 281.538, 138.219 280.956 C 142.986 279.632, 147.897 275.491, 149.636 271.329 C 151.561 266.721, 151.561 232.279, 149.636 227.671 C 147.897 223.509, 142.986 219.368, 138.219 218.044 C 136.125 217.462, 123.689 217.009, 109.750 217.006 L 85 217 85 249.500" stroke="none" fill="#dbf3fb" fill-rule="evenodd"/></svg>