<svg xmlns="http://www.w3.org/2000/svg" width="495" height="494" viewBox="0 0 495 494" version="1.1"><path d="M 0 247 L 0 494 53.559 494 C 103.753 494, 117.636 493.236, 97.772 491.567 C 85.072 490.500, 76.160 488.305, 66 483.742 C 63.525 482.631, 60.120 481.137, 58.433 480.424 C 49.530 476.657, 34.118 463.786, 24.839 452.369 C 18.382 444.424, 11.112 431.141, 8.492 422.500 C 7.491 419.200, 6.257 415.957, 5.750 415.294 C 5.243 414.630, 5.094 413.656, 5.420 413.129 C 5.746 412.602, 5.596 412.020, 5.087 411.835 C 4.577 411.651, 3.450 405.334, 2.580 397.798 C 0.209 377.237, 0.209 116.763, 2.580 96.202 C 3.450 88.666, 4.577 82.349, 5.087 82.165 C 5.596 81.980, 5.746 81.398, 5.420 80.871 C 5.094 80.344, 5.243 79.370, 5.750 78.706 C 6.257 78.043, 7.491 74.800, 8.492 71.500 C 11.056 63.047, 18.316 49.671, 24.577 41.866 C 33.511 30.730, 49.533 17.342, 58.433 13.576 C 60.120 12.863, 63.525 11.369, 66 10.258 C 75.954 5.787, 85.084 3.544, 97.772 2.451 C 117.468 0.754, 103.872 0, 53.559 0 L 0 0 0 247 M 388.419 0.869 C 388.714 1.347, 392.678 2.051, 397.228 2.433 C 409.928 3.500, 418.840 5.695, 429 10.258 C 431.475 11.369, 434.880 12.863, 436.567 13.576 C 445.467 17.342, 461.489 30.730, 470.423 41.866 C 476.684 49.671, 483.944 63.047, 486.508 71.500 C 487.509 74.800, 488.743 78.043, 489.250 78.706 C 489.757 79.370, 489.906 80.344, 489.580 80.871 C 489.254 81.398, 489.404 81.980, 489.913 82.165 C 490.423 82.349, 491.550 88.666, 492.420 96.202 C 494.791 116.763, 494.791 377.237, 492.420 397.798 C 491.550 405.334, 490.423 411.651, 489.913 411.835 C 489.404 412.020, 489.254 412.602, 489.580 413.129 C 489.906 413.656, 489.757 414.630, 489.250 415.294 C 488.743 415.957, 487.509 419.200, 486.508 422.500 C 483.888 431.141, 476.618 444.424, 470.161 452.369 C 460.882 463.786, 445.470 476.657, 436.567 480.424 C 434.880 481.137, 431.475 482.631, 429 483.742 C 418.840 488.305, 409.928 490.500, 397.228 491.567 C 377.364 493.236, 391.247 494, 441.441 494 L 495 494 495 247 L 495 0 441.441 0 C 411.374 0, 388.118 0.381, 388.419 0.869 M 155.472 158.042 C 145.610 159.332, 137.017 161.884, 128 166.202 C 115.958 171.969, 104.325 183.680, 97.618 196.790 C 81.483 228.325, 82.635 278.847, 100.100 305.654 C 108.881 319.132, 123.676 329.445, 141.030 334.186 C 148.446 336.212, 151.741 336.497, 167.500 336.473 C 182.941 336.451, 186.780 336.120, 194.500 334.150 C 203.810 331.773, 221.384 323.845, 226.314 319.797 L 229.127 317.487 223.429 301.993 C 220.295 293.472, 217.602 286.348, 217.444 286.162 C 217.286 285.976, 214.084 288.184, 210.329 291.069 C 200.827 298.368, 189.110 303.787, 178.893 305.609 C 163.619 308.333, 152.745 305.435, 142.589 295.934 C 130.549 284.672, 125.756 271.174, 125.745 248.500 C 125.737 231.487, 127.464 222.645, 133.001 211.352 C 140.691 195.667, 154.115 187.098, 171.114 187.024 C 191.298 186.937, 205.211 196.028, 214.692 215.500 C 217.102 220.450, 223.127 236.990, 228.082 252.256 C 233.036 267.522, 238.433 283.008, 240.075 286.668 C 249.027 306.619, 264.085 321.290, 283.655 329.126 C 295.648 333.928, 307.363 336.019, 326 336.684 C 368.455 338.200, 395.429 328.267, 405.125 307.547 C 414.268 288.008, 410.061 262.482, 395.505 249.179 C 385.623 240.147, 375.850 236.172, 348.484 230.052 C 323.135 224.383, 317.544 220.671, 316.307 208.689 C 315.340 199.316, 320.643 191.234, 329.760 188.187 C 338.750 185.182, 352.373 185.921, 359.889 189.822 C 364.869 192.406, 368.792 197.711, 370.244 203.826 C 371.309 208.309, 371.793 209.023, 373.498 208.624 C 374.599 208.366, 382.813 207.353, 391.750 206.372 L 408 204.590 408 201.476 C 408 193.033, 402.009 179.914, 394.914 172.819 C 380.397 158.302, 346.631 152.954, 317.460 160.552 C 297.796 165.674, 283.686 179.377, 279.900 197.029 C 279.281 199.917, 278.982 207.131, 279.225 213.352 C 279.816 228.538, 282.056 234.240, 290.909 243.089 C 300.067 252.243, 306.645 255.127, 333.244 261.649 C 355.411 267.084, 360.308 268.864, 365.795 273.481 C 372.222 278.889, 373.764 290.310, 368.974 297.037 C 364.001 304.020, 349.012 307.670, 329.500 306.649 C 310.039 305.631, 299.236 301.193, 288.369 289.750 C 279.141 280.033, 275.830 272.978, 264.960 239.871 C 252.223 201.079, 243.780 185.213, 230.083 174.332 C 223.161 168.833, 210.625 162.742, 201.909 160.644 C 188.064 157.311, 169.160 156.252, 155.472 158.042" stroke="none" fill="#fbf8f8" fill-rule="evenodd"/><path d="M 106.581 0.869 C 106.286 1.347, 102.322 2.059, 97.772 2.451 C 85.084 3.544, 75.954 5.787, 66 10.258 C 63.525 11.369, 60.120 12.863, 58.433 13.576 C 49.533 17.342, 33.511 30.730, 24.577 41.866 C 18.316 49.671, 11.056 63.047, 8.492 71.500 C 7.491 74.800, 6.257 78.043, 5.750 78.706 C 5.243 79.370, 5.094 80.344, 5.420 80.871 C 5.746 81.398, 5.596 81.980, 5.087 82.165 C 4.577 82.349, 3.450 88.666, 2.580 96.202 C 0.209 116.763, 0.209 377.237, 2.580 397.798 C 3.450 405.334, 4.577 411.651, 5.087 411.835 C 5.596 412.020, 5.746 412.602, 5.420 413.129 C 5.094 413.656, 5.243 414.630, 5.750 415.294 C 6.257 415.957, 7.491 419.200, 8.492 422.500 C 11.112 431.141, 18.382 444.424, 24.839 452.369 C 34.118 463.786, 49.530 476.657, 58.433 480.424 C 60.120 481.137, 63.525 482.631, 66 483.742 C 76.160 488.305, 85.072 490.500, 97.772 491.567 C 102.322 491.949, 106.286 492.653, 106.581 493.131 C 107.286 494.273, 387.714 494.273, 388.419 493.131 C 388.714 492.653, 392.678 491.949, 397.228 491.567 C 409.928 490.500, 418.840 488.305, 429 483.742 C 431.475 482.631, 434.880 481.137, 436.567 480.424 C 445.470 476.657, 460.882 463.786, 470.161 452.369 C 476.618 444.424, 483.888 431.141, 486.508 422.500 C 487.509 419.200, 488.743 415.957, 489.250 415.294 C 489.757 414.630, 489.906 413.656, 489.580 413.129 C 489.254 412.602, 489.404 412.020, 489.913 411.835 C 490.423 411.651, 491.550 405.334, 492.420 397.798 C 494.791 377.237, 494.791 116.763, 492.420 96.202 C 491.550 88.666, 490.423 82.349, 489.913 82.165 C 489.404 81.980, 489.254 81.398, 489.580 80.871 C 489.906 80.344, 489.757 79.370, 489.250 78.706 C 488.743 78.043, 487.509 74.800, 486.508 71.500 C 483.944 63.047, 476.684 49.671, 470.423 41.866 C 461.489 30.730, 445.467 17.342, 436.567 13.576 C 434.880 12.863, 431.475 11.369, 429 10.258 C 418.840 5.695, 409.928 3.500, 397.228 2.433 C 392.678 2.051, 388.714 1.347, 388.419 0.869 C 387.714 -0.273, 107.286 -0.273, 106.581 0.869 M 155.472 158.042 C 145.610 159.332, 137.017 161.884, 128 166.202 C 115.958 171.969, 104.325 183.680, 97.618 196.790 C 81.483 228.325, 82.635 278.847, 100.100 305.654 C 108.881 319.132, 123.676 329.445, 141.030 334.186 C 148.446 336.212, 151.741 336.497, 167.500 336.473 C 182.941 336.451, 186.780 336.120, 194.500 334.150 C 203.810 331.773, 221.384 323.845, 226.314 319.797 L 229.127 317.487 223.429 301.993 C 220.295 293.472, 217.602 286.348, 217.444 286.162 C 217.286 285.976, 214.084 288.184, 210.329 291.069 C 200.827 298.368, 189.110 303.787, 178.893 305.609 C 163.619 308.333, 152.745 305.435, 142.589 295.934 C 130.549 284.672, 125.756 271.174, 125.745 248.500 C 125.737 231.487, 127.464 222.645, 133.001 211.352 C 140.691 195.667, 154.115 187.098, 171.114 187.024 C 191.298 186.937, 205.211 196.028, 214.692 215.500 C 217.102 220.450, 223.127 236.990, 228.082 252.256 C 233.036 267.522, 238.433 283.008, 240.075 286.668 C 249.027 306.619, 264.085 321.290, 283.655 329.126 C 295.648 333.928, 307.363 336.019, 326 336.684 C 368.455 338.200, 395.429 328.267, 405.125 307.547 C 414.268 288.008, 410.061 262.482, 395.505 249.179 C 385.623 240.147, 375.850 236.172, 348.484 230.052 C 323.135 224.383, 317.544 220.671, 316.307 208.689 C 315.340 199.316, 320.643 191.234, 329.760 188.187 C 338.750 185.182, 352.373 185.921, 359.889 189.822 C 364.869 192.406, 368.792 197.711, 370.244 203.826 C 371.309 208.309, 371.793 209.023, 373.498 208.624 C 374.599 208.366, 382.813 207.353, 391.750 206.372 L 408 204.590 408 201.476 C 408 193.033, 402.009 179.914, 394.914 172.819 C 380.397 158.302, 346.631 152.954, 317.460 160.552 C 297.796 165.674, 283.686 179.377, 279.900 197.029 C 279.281 199.917, 278.982 207.131, 279.225 213.352 C 279.816 228.538, 282.056 234.240, 290.909 243.089 C 300.067 252.243, 306.645 255.127, 333.244 261.649 C 355.411 267.084, 360.308 268.864, 365.795 273.481 C 372.222 278.889, 373.764 290.310, 368.974 297.037 C 364.001 304.020, 349.012 307.670, 329.500 306.649 C 310.039 305.631, 299.236 301.193, 288.369 289.750 C 279.141 280.033, 275.830 272.978, 264.960 239.871 C 252.223 201.079, 243.780 185.213, 230.083 174.332 C 223.161 168.833, 210.625 162.742, 201.909 160.644 C 188.064 157.311, 169.160 156.252, 155.472 158.042" stroke="none" fill="#bc0404" fill-rule="evenodd"/></svg>