<svg xmlns="http://www.w3.org/2000/svg" width="500" height="500" viewBox="0 0 500 500" version="1.1"><path d="M 157.472 161.042 C 147.610 162.332, 139.017 164.884, 130 169.202 C 117.958 174.969, 106.325 186.680, 99.618 199.790 C 86.525 225.379, 84.448 264.626, 94.665 293.373 C 102.448 315.273, 119.560 330.775, 143.030 337.186 C 150.446 339.212, 153.741 339.497, 169.500 339.473 C 184.941 339.451, 188.780 339.120, 196.500 337.150 C 205.810 334.773, 223.384 326.845, 228.314 322.797 L 231.127 320.487 225.429 304.993 C 222.295 296.472, 219.602 289.348, 219.444 289.162 C 219.286 288.976, 216.084 291.184, 212.329 294.069 C 202.827 301.368, 191.110 306.787, 180.893 308.609 C 165.619 311.333, 154.745 308.435, 144.589 298.934 C 132.549 287.672, 127.756 274.174, 127.745 251.500 C 127.737 234.487, 129.464 225.645, 135.001 214.352 C 142.691 198.667, 156.115 190.098, 173.114 190.024 C 193.298 189.937, 207.211 199.028, 216.692 218.500 C 219.102 223.450, 225.127 239.990, 230.082 255.256 C 235.036 270.522, 240.433 286.008, 242.075 289.668 C 251.027 309.619, 266.085 324.290, 285.655 332.126 C 297.648 336.928, 309.363 339.019, 328 339.684 C 370.455 341.200, 397.429 331.267, 407.125 310.547 C 416.268 291.008, 412.061 265.482, 397.505 252.179 C 387.623 243.147, 377.850 239.172, 350.484 233.052 C 325.135 227.383, 319.544 223.671, 318.307 211.689 C 317.614 204.975, 320.261 198.428, 325.188 194.670 C 332.356 189.203, 346.593 187.706, 358.262 191.193 C 365.781 193.440, 373 202.884, 373 210.474 C 373 211.772, 373.574 212.081, 375.250 211.686 C 376.488 211.394, 384.813 210.353, 393.750 209.372 L 410 207.590 410 204.476 C 410 196.033, 404.009 182.914, 396.914 175.819 C 382.397 161.302, 348.631 155.954, 319.460 163.552 C 299.796 168.674, 285.686 182.377, 281.900 200.029 C 281.281 202.917, 280.982 210.131, 281.225 216.352 C 281.816 231.538, 284.056 237.240, 292.909 246.089 C 302.067 255.243, 308.645 258.127, 335.244 264.649 C 357.411 270.084, 362.308 271.864, 367.795 276.481 C 374.222 281.889, 375.764 293.310, 370.974 300.037 C 366.001 307.020, 351.012 310.670, 331.500 309.649 C 310.523 308.552, 298.191 302.920, 286.932 289.295 C 280.716 281.773, 276.562 272.116, 266.960 242.871 C 261.758 227.029, 255.893 211.288, 253.034 205.500 C 241.813 182.782, 228.337 170.856, 206.849 164.629 C 192.561 160.489, 172.724 159.047, 157.472 161.042" stroke="none" fill="#fbfafa" fill-rule="evenodd"/><path d="M 98.187 4.561 C 91.965 5.275, 86.340 6.289, 85.687 6.814 C 85.034 7.339, 82.925 8.093, 81 8.489 C 74.290 9.870, 65.491 13.203, 59.899 16.480 C 56.802 18.295, 53.349 20.072, 52.226 20.428 C 51.103 20.785, 49.932 21.734, 49.624 22.538 C 49.315 23.342, 48.359 24, 47.499 24 C 45.130 24, 23.721 45.920, 21.617 50.500 C 20.606 52.700, 19.266 54.950, 18.639 55.500 C 17.373 56.612, 11.390 69.556, 10.551 73 C 10.484 73.275, 9.922 74.409, 9.303 75.520 C 7.698 78.396, 5.254 91.077, 4.436 100.772 C 4.052 105.322, 3.347 109.286, 2.869 109.581 C 1.727 110.286, 1.727 389.714, 2.869 390.419 C 3.347 390.714, 4.052 394.678, 4.436 399.228 C 5.254 408.923, 7.698 421.604, 9.303 424.480 C 9.922 425.591, 10.484 426.725, 10.551 427 C 11.390 430.444, 17.373 443.388, 18.639 444.500 C 19.266 445.050, 20.593 447.268, 21.588 449.428 C 23.683 453.978, 45.149 476, 47.489 476 C 48.355 476, 49.315 476.658, 49.624 477.462 C 49.932 478.266, 51.103 479.215, 52.226 479.572 C 53.349 479.928, 56.802 481.705, 59.899 483.520 C 65.237 486.649, 76.448 490.993, 79.218 491.006 C 79.923 491.010, 81.795 491.688, 83.377 492.513 C 84.960 493.338, 92.315 494.686, 99.723 495.507 C 119.733 497.725, 379.267 497.725, 399.277 495.507 C 406.685 494.686, 414.040 493.338, 415.623 492.513 C 417.205 491.688, 419.077 491.010, 419.782 491.006 C 422.552 490.993, 433.763 486.649, 439.101 483.520 C 442.198 481.705, 445.651 479.928, 446.774 479.572 C 447.897 479.215, 449.068 478.266, 449.376 477.462 C 449.685 476.658, 450.645 476, 451.511 476 C 453.851 476, 475.317 453.978, 477.412 449.428 C 478.407 447.268, 479.734 445.050, 480.361 444.500 C 481.627 443.388, 487.610 430.444, 488.449 427 C 488.516 426.725, 489.078 425.591, 489.697 424.480 C 491.302 421.604, 493.746 408.923, 494.564 399.228 C 494.948 394.678, 495.653 390.714, 496.131 390.419 C 497.273 389.714, 497.273 110.286, 496.131 109.581 C 495.653 109.286, 494.948 105.322, 494.564 100.772 C 493.746 91.077, 491.302 78.396, 489.697 75.520 C 489.078 74.409, 488.516 73.275, 488.449 73 C 487.610 69.556, 481.627 56.612, 480.361 55.500 C 479.734 54.950, 478.394 52.700, 477.383 50.500 C 475.279 45.920, 453.870 24, 451.501 24 C 450.641 24, 449.685 23.342, 449.376 22.538 C 449.068 21.734, 447.897 20.785, 446.774 20.428 C 445.651 20.072, 442.198 18.295, 439.101 16.480 C 433.763 13.351, 422.552 9.007, 419.782 8.994 C 419.077 8.990, 417.205 8.312, 415.623 7.487 C 414.040 6.662, 406.685 5.314, 399.277 4.493 C 380.805 2.445, 116.096 2.504, 98.187 4.561 M 157.472 161.042 C 147.610 162.332, 139.017 164.884, 130 169.202 C 117.958 174.969, 106.325 186.680, 99.618 199.790 C 86.525 225.379, 84.448 264.626, 94.665 293.373 C 102.448 315.273, 119.560 330.775, 143.030 337.186 C 150.446 339.212, 153.741 339.497, 169.500 339.473 C 184.941 339.451, 188.780 339.120, 196.500 337.150 C 205.810 334.773, 223.384 326.845, 228.314 322.797 L 231.127 320.487 225.429 304.993 C 222.295 296.472, 219.602 289.348, 219.444 289.162 C 219.286 288.976, 216.084 291.184, 212.329 294.069 C 202.827 301.368, 191.110 306.787, 180.893 308.609 C 165.619 311.333, 154.745 308.435, 144.589 298.934 C 132.549 287.672, 127.756 274.174, 127.745 251.500 C 127.737 234.487, 129.464 225.645, 135.001 214.352 C 142.691 198.667, 156.115 190.098, 173.114 190.024 C 193.298 189.937, 207.211 199.028, 216.692 218.500 C 219.102 223.450, 225.127 239.990, 230.082 255.256 C 235.036 270.522, 240.433 286.008, 242.075 289.668 C 251.027 309.619, 266.085 324.290, 285.655 332.126 C 297.648 336.928, 309.363 339.019, 328 339.684 C 370.455 341.200, 397.429 331.267, 407.125 310.547 C 416.268 291.008, 412.061 265.482, 397.505 252.179 C 387.623 243.147, 377.850 239.172, 350.484 233.052 C 325.135 227.383, 319.544 223.671, 318.307 211.689 C 317.614 204.975, 320.261 198.428, 325.188 194.670 C 332.356 189.203, 346.593 187.706, 358.262 191.193 C 365.781 193.440, 373 202.884, 373 210.474 C 373 211.772, 373.574 212.081, 375.250 211.686 C 376.488 211.394, 384.813 210.353, 393.750 209.372 L 410 207.590 410 204.476 C 410 196.033, 404.009 182.914, 396.914 175.819 C 382.397 161.302, 348.631 155.954, 319.460 163.552 C 299.796 168.674, 285.686 182.377, 281.900 200.029 C 281.281 202.917, 280.982 210.131, 281.225 216.352 C 281.816 231.538, 284.056 237.240, 292.909 246.089 C 302.067 255.243, 308.645 258.127, 335.244 264.649 C 357.411 270.084, 362.308 271.864, 367.795 276.481 C 374.222 281.889, 375.764 293.310, 370.974 300.037 C 366.001 307.020, 351.012 310.670, 331.500 309.649 C 310.523 308.552, 298.191 302.920, 286.932 289.295 C 280.716 281.773, 276.562 272.116, 266.960 242.871 C 261.758 227.029, 255.893 211.288, 253.034 205.500 C 241.813 182.782, 228.337 170.856, 206.849 164.629 C 192.561 160.489, 172.724 159.047, 157.472 161.042" stroke="none" fill="#bb0404" fill-rule="evenodd"/></svg>