<svg xmlns="http://www.w3.org/2000/svg" width="500" height="500" viewBox="0 0 500 500" version="1.1"><path d="M 292.500 169.632 C 262.601 172.575, 242.740 180.187, 228.990 193.971 C 215.973 207.021, 211.059 219.402, 210.254 241.176 C 209.521 261.016, 212.339 277.417, 220.524 300.931 C 225.337 314.759, 233.049 331.195, 234.468 330.651 C 236.177 329.995, 262 313.104, 262 312.642 C 262 312.422, 260.411 309.604, 258.469 306.379 C 254.594 299.943, 250.056 286.771, 247.588 274.792 C 244.883 261.661, 242.395 263, 269.500 263 L 293 263 293 287.500 L 293 312 313.009 312 L 333.018 312 332.759 258.750 L 332.500 205.500 313.389 205.229 L 294.278 204.958 293.639 209.618 C 293.287 212.182, 293 219.236, 293 225.295 L 293 236.310 279.342 235.655 C 271.830 235.295, 261.646 235, 256.710 235 L 247.737 235 248.306 230.758 C 249.274 223.537, 255.798 212.157, 261.731 207.339 C 271.066 199.760, 275.416 199, 309.479 199 L 338.747 199 334.332 184.791 C 331.903 176.977, 329.673 170.339, 329.375 170.041 C 328.735 169.401, 298.284 169.063, 292.500 169.632 M 364 240.511 L 364 312.022 404.617 311.761 L 445.233 311.500 448.578 298 C 450.417 290.575, 451.940 283.938, 451.961 283.250 C 451.991 282.281, 446.154 282, 426 282 L 400 282 400 226.155 L 400 170.310 386.342 169.655 C 378.830 169.295, 370.730 169, 368.342 169 L 364 169 364 240.511 M 47 241 L 47 312 65 312 L 83 312 83 267.941 C 83 241.096, 83.363 224.106, 83.928 224.456 C 84.439 224.771, 91.953 233.798, 100.627 244.515 C 109.300 255.232, 116.645 264, 116.949 264 C 117.252 264, 124.925 255.142, 134 244.316 L 150.500 224.633 150.761 268.316 L 151.021 312 169.011 312 L 187 312 187 241 L 187 170 168.594 170 L 150.189 170 132.966 191.543 L 115.743 213.085 109.266 204.293 C 105.704 199.457, 98.559 189.762, 93.388 182.750 L 83.988 170 65.494 170 L 47 170 47 241" stroke="none" fill="#fafbfb" fill-rule="evenodd"/><path d="M 98.187 4.561 C 91.965 5.275, 86.340 6.289, 85.687 6.814 C 85.034 7.339, 82.925 8.093, 81 8.489 C 74.290 9.870, 65.491 13.203, 59.899 16.480 C 56.802 18.295, 53.349 20.072, 52.226 20.428 C 51.103 20.785, 49.932 21.734, 49.624 22.538 C 49.315 23.342, 48.359 24, 47.499 24 C 45.130 24, 23.721 45.920, 21.617 50.500 C 20.606 52.700, 19.266 54.950, 18.639 55.500 C 17.373 56.612, 11.390 69.556, 10.551 73 C 10.484 73.275, 9.922 74.409, 9.303 75.520 C 7.698 78.396, 5.254 91.077, 4.436 100.772 C 4.052 105.322, 3.347 109.286, 2.869 109.581 C 1.727 110.286, 1.727 389.714, 2.869 390.419 C 3.347 390.714, 4.052 394.678, 4.436 399.228 C 5.254 408.923, 7.698 421.604, 9.303 424.480 C 9.922 425.591, 10.484 426.725, 10.551 427 C 11.390 430.444, 17.373 443.388, 18.639 444.500 C 19.266 445.050, 20.593 447.268, 21.588 449.428 C 23.683 453.978, 45.149 476, 47.489 476 C 48.355 476, 49.315 476.658, 49.624 477.462 C 49.932 478.266, 51.103 479.215, 52.226 479.572 C 53.349 479.928, 56.802 481.705, 59.899 483.520 C 65.237 486.649, 76.448 490.993, 79.218 491.006 C 79.923 491.010, 81.795 491.688, 83.377 492.513 C 84.960 493.338, 92.315 494.686, 99.723 495.507 C 119.733 497.725, 379.267 497.725, 399.277 495.507 C 406.685 494.686, 414.040 493.338, 415.623 492.513 C 417.205 491.688, 419.077 491.010, 419.782 491.006 C 422.552 490.993, 433.763 486.649, 439.101 483.520 C 442.198 481.705, 445.651 479.928, 446.774 479.572 C 447.897 479.215, 449.068 478.266, 449.376 477.462 C 449.685 476.658, 450.645 476, 451.511 476 C 453.851 476, 475.317 453.978, 477.412 449.428 C 478.407 447.268, 479.734 445.050, 480.361 444.500 C 481.627 443.388, 487.610 430.444, 488.449 427 C 488.516 426.725, 489.078 425.591, 489.697 424.480 C 491.302 421.604, 493.746 408.923, 494.564 399.228 C 494.948 394.678, 495.653 390.714, 496.131 390.419 C 497.273 389.714, 497.273 110.286, 496.131 109.581 C 495.653 109.286, 494.948 105.322, 494.564 100.772 C 493.746 91.077, 491.302 78.396, 489.697 75.520 C 489.078 74.409, 488.516 73.275, 488.449 73 C 487.610 69.556, 481.627 56.612, 480.361 55.500 C 479.734 54.950, 478.394 52.700, 477.383 50.500 C 475.279 45.920, 453.870 24, 451.501 24 C 450.641 24, 449.685 23.342, 449.376 22.538 C 449.068 21.734, 447.897 20.785, 446.774 20.428 C 445.651 20.072, 442.198 18.295, 439.101 16.480 C 433.763 13.351, 422.552 9.007, 419.782 8.994 C 419.077 8.990, 417.205 8.312, 415.623 7.487 C 414.040 6.662, 406.685 5.314, 399.277 4.493 C 380.805 2.445, 116.096 2.504, 98.187 4.561 M 292.500 169.632 C 262.601 172.575, 242.740 180.187, 228.990 193.971 C 215.973 207.021, 211.059 219.402, 210.254 241.176 C 209.521 261.016, 212.339 277.417, 220.524 300.931 C 225.337 314.759, 233.049 331.195, 234.468 330.651 C 236.177 329.995, 262 313.104, 262 312.642 C 262 312.422, 260.411 309.604, 258.469 306.379 C 254.594 299.943, 250.056 286.771, 247.588 274.792 C 244.883 261.661, 242.395 263, 269.500 263 L 293 263 293 287.500 L 293 312 313.009 312 L 333.018 312 332.759 258.750 L 332.500 205.500 313.389 205.229 L 294.278 204.958 293.639 209.618 C 293.287 212.182, 293 219.236, 293 225.295 L 293 236.310 279.342 235.655 C 271.830 235.295, 261.646 235, 256.710 235 L 247.737 235 248.306 230.758 C 249.274 223.537, 255.798 212.157, 261.731 207.339 C 271.066 199.760, 275.416 199, 309.479 199 L 338.747 199 334.332 184.791 C 331.903 176.977, 329.673 170.339, 329.375 170.041 C 328.735 169.401, 298.284 169.063, 292.500 169.632 M 364 240.511 L 364 312.022 404.617 311.761 L 445.233 311.500 448.578 298 C 450.417 290.575, 451.940 283.938, 451.961 283.250 C 451.991 282.281, 446.154 282, 426 282 L 400 282 400 226.155 L 400 170.310 386.342 169.655 C 378.830 169.295, 370.730 169, 368.342 169 L 364 169 364 240.511 M 47 241 L 47 312 65 312 L 83 312 83 267.941 C 83 241.096, 83.363 224.106, 83.928 224.456 C 84.439 224.771, 91.953 233.798, 100.627 244.515 C 109.300 255.232, 116.645 264, 116.949 264 C 117.252 264, 124.925 255.142, 134 244.316 L 150.500 224.633 150.761 268.316 L 151.021 312 169.011 312 L 187 312 187 241 L 187 170 168.594 170 L 150.189 170 132.966 191.543 L 115.743 213.085 109.266 204.293 C 105.704 199.457, 98.559 189.762, 93.388 182.750 L 83.988 170 65.494 170 L 47 170 47 241" stroke="none" fill="#2c54a4" fill-rule="evenodd"/></svg>